<?xml version="1.0" encoding="UTF-8"?><svg id="uuid-3d235ffc-34ae-460d-91b7-5c8f437c9aca" xmlns="http://www.w3.org/2000/svg" xmlns:xlink="http://www.w3.org/1999/xlink" viewBox="0 0 1081 1919"><defs><style>.uuid-1b4c82e0-91bc-4323-a517-c1c933da47dd{fill:#abafb0;}.uuid-1b4c82e0-91bc-4323-a517-c1c933da47dd,.uuid-0fc988df-e755-444b-aa48-59f1ecd350d7,.uuid-5e20773f-ac0b-4cc3-9966-6c185d0abd8f,.uuid-6138d62d-33e1-4be7-9d1d-ee9af39e3d7c,.uuid-cc0aecc8-ecbe-4771-88cc-e843200b55d1,.uuid-45a71af6-bf44-445a-905b-e4d15d14b41c,.uuid-7628782c-9793-4a84-a4c1-8c5849d87a19,.uuid-e42cdf30-479e-4f8e-bfb6-96c4b2c21301,.uuid-8ba640ba-1f36-4068-818f-5b92acd52351,.uuid-bfa79843-1fce-433a-b008-879ee58fb1b3,.uuid-1c8da2fa-1556-4dce-a861-38f8fc383f1e,.uuid-194fbba7-f90f-4c61-a178-2d0f008a42f7,.uuid-c1b44535-c010-4110-b5cf-e8169d528bf7,.uuid-4e607e83-a2dc-46ff-92ca-5bf55628d6f2,.uuid-5757ce86-b101-4251-a9c0-a855d521fa03,.uuid-a84c4058-04d1-4100-a460-9c302843f92b,.uuid-18577e37-0ab5-4ed9-a4d9-8ab2fbc167f2,.uuid-2800484c-c2bb-43c9-a509-650f6677e74c,.uuid-60cf4dbb-ad03-47fc-8c1f-55dbf271ce28,.uuid-80c2c426-28b3-4bbb-ba06-b444e4d34b71,.uuid-3ee5e269-f319-4dff-9e85-5867730f9032,.uuid-703495de-8b11-4b77-ab54-7f004aedaf38,.uuid-83245ece-a229-46aa-9d51-4b8ef1148c6f,.uuid-a995f766-5609-47f0-85ca-63766a8bea46,.uuid-9b6bbaed-11a0-4bdc-a935-baa0721efc13,.uuid-e39b16c1-8608-4c56-9da5-9e24d1babb5b,.uuid-8f0f68a5-e2c6-47d3-aef4-96801150603f,.uuid-39cb526d-d632-41a6-ba00-a228823385d2,.uuid-95eb3efa-0408-47dd-9156-c1dd6348597a,.uuid-e438fc7e-5ef7-440e-b0f7-5fed29e94ee7,.uuid-64199266-2d41-45a5-b284-91d8c5f3758a,.uuid-57fb60e4-2e10-4240-a646-4b7177233e64{stroke-width:0px;}.uuid-0fc988df-e755-444b-aa48-59f1ecd350d7{fill:#136e89;}.uuid-5e20773f-ac0b-4cc3-9966-6c185d0abd8f{fill:#b7c6cc;}.uuid-6138d62d-33e1-4be7-9d1d-ee9af39e3d7c{fill:#103e57;}.uuid-cc0aecc8-ecbe-4771-88cc-e843200b55d1{fill:#8e999b;}.uuid-45a71af6-bf44-445a-905b-e4d15d14b41c{fill:#c7dcde;}.uuid-7628782c-9793-4a84-a4c1-8c5849d87a19{fill:#1c7c97;}.uuid-e42cdf30-479e-4f8e-bfb6-96c4b2c21301{fill:#6b8794;}.uuid-8ba640ba-1f36-4068-818f-5b92acd52351{fill:#1f5e77;}.uuid-bfa79843-1fce-433a-b008-879ee58fb1b3{fill:url(#uuid-6acef359-16d5-48ab-9df8-e5c1733f5996);}.uuid-1c8da2fa-1556-4dce-a861-38f8fc383f1e{fill:url(#uuid-691247f7-b5d0-487b-95de-710f2bb998fe);}.uuid-194fbba7-f90f-4c61-a178-2d0f008a42f7{fill:#d9d9d0;}.uuid-c1b44535-c010-4110-b5cf-e8169d528bf7{fill:url(#uuid-3e530a39-2fe2-4270-a795-75df0042c5a2);}.uuid-4e607e83-a2dc-46ff-92ca-5bf55628d6f2{fill:#6ad2db;}.uuid-5757ce86-b101-4251-a9c0-a855d521fa03{fill:#638ea9;}.uuid-a84c4058-04d1-4100-a460-9c302843f92b{fill:#f9f3dd;}.uuid-18577e37-0ab5-4ed9-a4d9-8ab2fbc167f2{fill:#93abba;}.uuid-2800484c-c2bb-43c9-a509-650f6677e74c{fill:#8fcdd7;}.uuid-60cf4dbb-ad03-47fc-8c1f-55dbf271ce28{fill:#6f7f81;}.uuid-80c2c426-28b3-4bbb-ba06-b444e4d34b71{fill:#2a8ba6;}.uuid-3ee5e269-f319-4dff-9e85-5867730f9032{fill:#8698a6;}.uuid-703495de-8b11-4b77-ab54-7f004aedaf38{fill:#556d7f;}.uuid-83245ece-a229-46aa-9d51-4b8ef1148c6f{fill:url(#uuid-ff13250b-d1a4-4ae8-8adb-f74ddbaa335a);}.uuid-a995f766-5609-47f0-85ca-63766a8bea46{fill:#77aabc;}.uuid-9b6bbaed-11a0-4bdc-a935-baa0721efc13{fill:#5eb6c6;}.uuid-e39b16c1-8608-4c56-9da5-9e24d1babb5b{fill:#3c9ab3;}.uuid-8f0f68a5-e2c6-47d3-aef4-96801150603f{fill:#124f67;}.uuid-39cb526d-d632-41a6-ba00-a228823385d2{fill:#f9ecde;}.uuid-95eb3efa-0408-47dd-9156-c1dd6348597a{fill:#43566b;}.uuid-e438fc7e-5ef7-440e-b0f7-5fed29e94ee7{fill:#f6f6ec;}.uuid-64199266-2d41-45a5-b284-91d8c5f3758a{fill:url(#uuid-e0ca9efc-a310-434c-85d4-73adbba2e31d);}.uuid-57fb60e4-2e10-4240-a646-4b7177233e64{fill:#69645f;}</style><linearGradient id="uuid-691247f7-b5d0-487b-95de-710f2bb998fe" x1="2101.42" y1="330.58" x2="2114.27" y2="1115.47" gradientTransform="translate(-2522.27 -764.83) scale(1.45 2.33)" gradientUnits="userSpaceOnUse"><stop offset="0" stop-color="#267187"/><stop offset=".45" stop-color="#67bbc6"/><stop offset=".51" stop-color="#76c3cc"/><stop offset=".95" stop-color="#faf7e2"/></linearGradient><linearGradient id="uuid-6acef359-16d5-48ab-9df8-e5c1733f5996" x1="2129.75" y1="1234.3" x2="2066.67" y2="1624.76" gradientTransform="translate(-2519.83 -394.21) scale(1.45)" gradientUnits="userSpaceOnUse"><stop offset="0" stop-color="#2f8aa0"/><stop offset="1" stop-color="#143c54"/></linearGradient><linearGradient id="uuid-3e530a39-2fe2-4270-a795-75df0042c5a2" x1="2108.3" y1="1185.47" x2="2075.56" y2="1272.42" gradientTransform="translate(-2519.83 -394.21) scale(1.45)" gradientUnits="userSpaceOnUse"><stop offset="0" stop-color="#2b869d"/><stop offset="1" stop-color="#1d6780"/></linearGradient><linearGradient id="uuid-e0ca9efc-a310-434c-85d4-73adbba2e31d" x1="2209.37" y1="1108.58" x2="2213.83" y2="1218.64" gradientTransform="translate(-2519.83 -394.21) scale(1.45)" gradientUnits="userSpaceOnUse"><stop offset="0" stop-color="#45aabe"/><stop offset="1" stop-color="#22718a"/></linearGradient><linearGradient id="uuid-ff13250b-d1a4-4ae8-8adb-f74ddbaa335a" x1="1867.91" y1="970.84" x2="1859.39" y2="1046.48" gradientTransform="translate(-2519.83 -394.21) scale(1.45)" gradientUnits="userSpaceOnUse"><stop offset="0" stop-color="#135d79"/><stop offset="1" stop-color="#228098"/></linearGradient></defs><g id="uuid-78988f04-84b1-4518-9b48-7e9ce79c1803"><g id="uuid-45aac31f-650c-44f4-8745-ad4aa142ae8c"><rect class="uuid-1c8da2fa-1556-4dce-a861-38f8fc383f1e" width="1081" height="1919"/></g><path class="uuid-39cb526d-d632-41a6-ba00-a228823385d2" d="M843.93,973.88c5.16-.21,6.9-1.37,8.71-1.45,29.23-1.34,57.99-3.63,87.15-5.82,6.3-.47,12.58-.96,18.88-1.45,13.08-1.02,26.11-1.81,39.22-2.91,1.91-.16,3.9.16,5.81,0,25.66-2.19,51.29-5.32,76.98-7.27-.02,35.4.02,70.79,0,106.19-79.89,19.11-160.51,34.76-239.66,56.73-65.33-2.96-131.77,3.42-194.63,21.82q-12.35,2.91-24.69,5.82c-48,2.97-114.4,9.43-160.5,20.36-3.34.79-10.5,2.55-12.35,5.82-49.33-.19-61.52-3.4-119.1,14.55-11.69-6.14-41.24-18.33-65.36-30.55,39.03-17.77,77.13-37.59,116.2-55.28,32.59-14.75,65.48-29.07,98.77-42.18,9.18-3.62,18.46-8.24,27.6-11.64,20.98-7.81,42.54-15.11,63.91-21.82,12.4-3.89,25.29-8.15,37.76-11.64,12.34-3.45,25.3-5.7,37.76-8.73,9.74-2.37,19.22-5.13,29.05-7.27,31.09-6.79,61.83-13.26,93.69-16v-2.91c-1.81-.83-4.84-1.32-5.08-1.45-9.51-5.16-27.96-11.46-40.67-17.46,4.68-3.28,1.22-1.73-1.45-8.73,4.82,9.41,62.56,25.6,68.99,26.18,6.01.54,39.57-2.37,53.02-2.91Z"/><path class="uuid-39cb526d-d632-41a6-ba00-a228823385d2" d="M1080.68,1097.52c-.03,53.34.06,106.67,0,160.01q-41.03,12.36-82.07,24.73l-6.54-1.45c-77.1-16.76-173.49-58.84-249.1-68.37-72.29-9.1-183.37-1.61-259.27,0,19.43-3.01,38.81-7.81,58.1-11.64,38.71-7.68,76.8-18.66,115.47-26.18,54.32-10.56,108.94-20.76,163.4-30.55,86.72-15.58,175.02-22.15,259.99-46.55Z"/><path class="uuid-6138d62d-33e1-4be7-9d1d-ee9af39e3d7c" d="M264.39,1155.7c24.12,12.22,53.67,24.41,65.36,30.55,20.14,10.58,39.85,24.81,59.55,36.37,47.88,20.28,93.89,46.64,135.08,78.55-25.06-9.77-51.5-17.49-76.98-26.18C299.87,1218.88,149.06,1172.65.04,1120.79c-.02-30.06.02-60.12,0-90.19,90.57,36.91,177.22,80.97,264.35,125.1Z"/><path class="uuid-8f0f68a5-e2c6-47d3-aef4-96801150603f" d="M1080.68,1061.15c0,12.12,0,24.24,0,36.37-84.97,24.4-173.28,30.97-259.99,46.55,8.13-3.1,8.37-14.06,10.17-21.82,4.12-1.17,9.63-4.22,10.17-4.36,79.15-21.97,159.76-37.62,239.66-56.73Z"/><path class="uuid-bfa79843-1fce-433a-b008-879ee58fb1b3" d="M1080.68,1548.45c-.19,10.18.14,360.37,0,370.55H.04c-.1-96.49.13-532.98,0-629.47,100.04-1,197.17,23.35,294.13,45.09,180.28,45.12,360.28,91.05,538.87,142.55,82.51,23.79,163.53,53.71,247.65,71.28Z"/><path class="uuid-c1b44535-c010-4110-b5cf-e8169d528bf7" d="M447.4,1274.98c33.15,12.61,65.99,26.13,99.49,37.82,172.72,80.06,354.95,136.31,533.79,200.74-.07,10.66.24,21.35,0,32-83.26-16.23-163.3-46.27-244.74-69.82-236.37-68.37-475.07-130.92-716.07-180.37q-59.91-4.36-119.83-8.73c-.08-55.28.04-110.55,0-165.83,149.02,51.86,299.83,98.09,447.36,154.19Z"/><path class="uuid-9b6bbaed-11a0-4bdc-a935-baa0721efc13" d="M1080.68,1545.54s0,.02,0,.03c-.03,1.48-1.38,2.59-2.83,2.28-83.1-17.64-163.23-47.15-244.82-70.68-178.59-51.5-358.59-97.44-538.87-142.55-96.96-21.74-194.08-46.09-294.13-45.09,0-.97,0-1.94,0-2.91l119.83,8.73c241,49.46,479.7,112.01,716.07,180.37,81.44,23.56,161.48,53.59,244.74,69.82Z"/><path class="uuid-9b6bbaed-11a0-4bdc-a935-baa0721efc13" d="M524.38,1301.17c31.85,12.41,206.46,90.52,220.05,91.64,10.09-.48,24.41-13.12,42.85-23.27-11.25,7.77-22.37,16.16-33.41,24l2.18,3.64q162.31,57.46,324.63,114.92c0,.48,0,.97,0,1.45-178.84-64.43-361.07-120.68-533.79-200.74-33.51-11.69-66.34-25.21-99.49-37.82,25.48,8.69,51.92,16.42,76.98,26.18Z"/><path class="uuid-80c2c426-28b3-4bbb-ba06-b444e4d34b71" d="M10.21,922.96c-2.2,13.82,10.67,23.92,11.62,37.82-7,1.7-14.57,2.6-21.79,2.91,0-10.67,0-21.33,0-32,4.41-1.65,5.55-7.41,10.17-8.73Z"/><path class="uuid-80c2c426-28b3-4bbb-ba06-b444e4d34b71" d="M21.83,960.78c-.95-13.9-13.82-24-11.62-37.82,3.93-1.12,25.32,27.09,30.5,29.82.08,3.32-14.88,7.03-18.88,8Z"/><path class="uuid-8f0f68a5-e2c6-47d3-aef4-96801150603f" d="M448.85,1171.7c6.09.02,16.92,2.85,24.69,2.91,12.8,5.86,41.61,21.95,52.29,24.73,2.39.62.97,2.69,2.18,2.91,1.63.3,11.8-4.68,13.8-1.45-19.29,3.83-38.67,8.63-58.1,11.64-31.63,4.9-62.31,8.85-94.41,10.18-19.7-11.56-39.41-25.79-59.55-36.37,57.59-17.95,69.78-14.74,119.1-14.55Z"/><path class="uuid-0fc988df-e755-444b-aa48-59f1ecd350d7" d="M660.92,1149.89c-45.67,14.01-90.26,32.96-135.08,49.46-10.68-2.78-39.49-18.87-52.29-24.73,33.13.24,68.43-3.6,100.95-10.18,22.53-4.56,62.28-12.35,47.21-18.91q12.35-2.91,24.69-5.82c-1.98,6.21,7.46,3.21,14.52,10.18Z"/><path class="uuid-80c2c426-28b3-4bbb-ba06-b444e4d34b71" d="M841.02,1117.88c-.53.15-6.05,3.19-10.17,4.36-25.55,7.26-51.31,14.03-76.26,23.27-8.92.47-11.26-10.34-36.31-10.18-18.43.11-39.91,9.19-57.37,14.55-7.06-6.98-16.51-3.97-14.52-10.18,62.87-18.4,129.3-24.78,194.63-21.82Z"/><path class="uuid-80c2c426-28b3-4bbb-ba06-b444e4d34b71" d="M621.7,1145.52c15.07,6.56-24.68,14.35-47.21,18.91-32.52,6.59-67.81,10.42-100.95,10.18-7.77-.06-18.6-2.89-24.69-2.91,1.85-3.27,9.01-5.03,12.35-5.82,46.1-10.94,112.5-17.39,160.5-20.36Z"/><path class="uuid-64199266-2d41-45a5-b284-91d8c5f3758a" d="M992.08,1280.8c-4.74,6.36-29.61,12.29-45.03,17.46-10.1.2-23.58,4.9-34.13,8.73-40.29,14.61-90.5,38.3-125.64,62.55-18.44,10.16-32.76,22.8-42.85,23.27-13.59-1.12-188.2-79.23-220.05-91.64-41.19-31.91-87.2-58.27-135.08-78.55,32.1-1.34,62.78-5.28,94.41-10.18,75.9-1.61,186.98-9.1,259.27,0,75.61,9.52,172,51.6,249.1,68.37Z"/><path class="uuid-8ba640ba-1f36-4068-818f-5b92acd52351" d="M830.86,1122.25c-1.8,7.76-2.04,18.72-10.17,21.82-54.46,9.78-109.09,19.99-163.4,30.55-38.67,7.52-76.76,18.51-115.47,26.18-2-3.23-12.17,1.75-13.8,1.45-1.21-.22.21-2.29-2.18-2.91,44.82-16.49,89.41-35.44,135.08-49.46,17.47-5.36,38.94-14.43,57.37-14.55,25.05-.15,27.4,10.65,36.31,10.18,24.95-9.25,50.7-16.01,76.26-23.27Z"/><path class="uuid-8f0f68a5-e2c6-47d3-aef4-96801150603f" d="M1080.68,1257.53c-.1,84.84.76,169.73,0,254.56q-162.31-57.46-324.63-114.92l-2.18-3.64c11.04-7.84,22.15-16.23,33.41-24,57.74-31.81,96.87-50.2,159.77-71.28,15.42-5.17,40.29-11.09,45.03-17.46l6.54,1.45q41.03-12.36,82.07-24.73Z"/><path class="uuid-9b6bbaed-11a0-4bdc-a935-baa0721efc13" d="M947.06,1298.26c-62.9,21.08-102.03,39.47-159.77,71.28,35.14-24.25,85.35-47.94,125.64-62.55,10.55-3.83,24.03-8.53,34.13-8.73Z"/><path class="uuid-9b6bbaed-11a0-4bdc-a935-baa0721efc13" d="M845.38,858.96c10.89.91,87.53,39.58,104.58,48,88.14,43.56,83.75,51.69,20.33-13.09-6.38-6.52-5.45-8.35-5.81-8.73,2.6,1.44,3.06,2.36,2.9-1.45,14.94,17.58,19.31,18.23,34.86,29.09,6.51,4.55,55.43,35.28,58.83,34.91,5.02-3.87-8.24-13.97-16.7-20.36,1.51-13.97-11.75-18.43-8.71-21.82,10.49,3.35,19.42,9.82,29.05,14.55q7.99,7.27,15.98,14.55c0,6.79,0,13.58,0,20.36-25.7,1.95-51.32,5.08-76.98,7.27-10.47-9.12-92.22-63.37-98.04-64-.21-.02-2.65,2.11-3.63,2.18,31.54,20.96,65.15,39.34,95.86,61.82-13.1,1.1-26.13,1.89-39.22,2.91-10.48-9.37-54.85-34.05-59.55-40.73-5.38-7.63.77-11.41-1.45-18.18-1.7-5.2-25.35-17.08-30.5-21.09-5.85-4.55-12.2-8.5-17.43-13.82-11.3-12.82-6.77-11.73-7.26-12.36.96.04,1.95-.08,2.9,0Z"/><path class="uuid-8ba640ba-1f36-4068-818f-5b92acd52351" d="M1080.68,924.42c0,3.39,0,6.79,0,10.18q-7.99-7.27-15.98-14.55c5.57,2.73,9.12,5.48,15.98,4.36Z"/><path class="uuid-a84c4058-04d1-4100-a460-9c302843f92b" d="M592.65,768.77c.09.62-5.29,3.06,3.63,10.18,48.82,32.61,78.19,69.12,109.66,117.82,5.55,17.82,9.3,36.37,15.98,53.82,2.67,6.99,6.14,5.45,1.45,8.73-7.12-3.36-16.26-3.64-21.79-10.18-7.18-14.62-14.64-47.05-31.95-52.37-17.13-5.26-30.8,30.02-34.86,43.64-.67-.25-6.31-.31-10.17-1.45-36.47-10.83-42.94,3.58-72.62,21.82-8.45-4.24-22.59-13.4-30.5-16,1.86-.95,7-6.83,7.26-7.27q-.36,1.45-.73,2.91c13.61-3.77,27.72-9.54,41.4-14.55,9.52-3.49,18.32-5.53,27.6-10.18,3.27-1.64,14.52-5.03,15.98-8,2.82-33.87,20.61-61.3,0-93.1-3.08-4.76-9.39-8.17-13.07-12.36-.48-.55-4.92-8.93-8.71-11.64-.24-4.44.54-22.05-5.81-13.09.15-.42,1.26-8.33,1.45-8.73,1.96-3.97,1.09-2.77,4.36-5.82.25,4.56,1.32,4.9,1.45,5.82Z"/><path class="uuid-cc0aecc8-ecbe-4771-88cc-e843200b55d1" d="M514.22,941.87q15.61,18.91,31.23,37.82c19.71,6.53,21.32-24.28,63.18,33.46-12.47,3.49-25.36,7.75-37.76,11.64-32.03-18.26-66.94-30.6-103.13-36.37.09-.94-.19-2.03,0-2.91,1.16-5.42-7.68-27.59-11.62-33.46,21.12-10.71,33.44-15.27,58.1-10.18Z"/><path class="uuid-cc0aecc8-ecbe-4771-88cc-e843200b55d1" d="M450.31,985.51q28.32,30.55,56.65,61.09c-9.14,3.4-18.42,8.02-27.6,11.64-26.36-19.46-90.41-58.68-120.56-61.09,28.27-14.05,60.32-14.36,91.51-11.64Z"/><path class="uuid-80c2c426-28b3-4bbb-ba06-b444e4d34b71" d="M467.74,988.42c36.18,5.77,71.1,18.11,103.13,36.37-21.37,6.71-42.92,14.01-63.91,21.82q-28.32-30.55-56.65-61.09c5.95.52,11.59,1.98,17.43,2.91Z"/><path class="uuid-80c2c426-28b3-4bbb-ba06-b444e4d34b71" d="M591.2,762.96c-3.27,3.05-2.4,1.85-4.36,5.82-50.17,47.91-92.42,102.87-123.46,165.1-23.34,10.9-19.23,13.78-23.24,2.18,8.78-40.69,104.46-122.46,107.48-133.1,1.45-5.1-1.97-4.63-2.9-6.55,9.82-8.12,20.49-15.25,30.5-23.27,5.46-4.37,10.76-8.38,15.98-13.09.02.97-.05,1.94,0,2.91Z"/><path class="uuid-a995f766-5609-47f0-85ca-63766a8bea46" d="M440.14,936.06c-2.66-7.69-4.03-15.95-2.9-24,3.91-27.86,79.44-93.01,103.13-112.73,1.21-1.01,3.15-1.91,4.36-2.91.93,1.91,4.36,1.44,2.9,6.55-3.03,10.63-98.7,92.41-107.48,133.1Z"/><path class="uuid-8f0f68a5-e2c6-47d3-aef4-96801150603f" d="M521.48,944.78c7.91,2.6,22.05,11.76,30.5,16,32.11,15.71,66.37,14.67,94.41,43.64-12.47,3.03-25.43,5.27-37.76,8.73-41.87-57.73-43.47-26.92-63.18-33.46q-15.61-18.91-31.23-37.82c3.4.7,4.88,2.12,7.26,2.91Z"/><path class="uuid-0fc988df-e755-444b-aa48-59f1ecd350d7" d="M611.53,645.13c-6.18,15.76,17.73,44.3,11.62,47.28,1.36-.45,5.67,4.73,5.81,5.09,3.81,9.93,10.75,39.49,11.62,41.46,2.64,5.95,26.42,38.26,31.95,53.82-24.43-14.61-48.06-30.95-58.1-58.91-.65-1.8-4.9-16.86-3.63-17.46,62.39,82.12-.78-25.86-2.18-31.27-1.22-4.69,4.92-20.35-8.71-37.09.42-3.58,1.88-7.75,2.18-11.64,1.82-1.47,8.29,7.72,9.44,8.73Z"/><path class="uuid-cc0aecc8-ecbe-4771-88cc-e843200b55d1" d="M345.73,997.15c13.26,11.18,28.54,30.06,23.97,48-24.79-10.09-49.87-19.37-74.8-29.09,15.4-9.48,32.48-17.72,50.84-18.91Z"/><path class="uuid-80c2c426-28b3-4bbb-ba06-b444e4d34b71" d="M614.44,733.86c-4.72,3.21-3.21.38-5.81-1.45-8.74-20.86-11.25-62.98-8.71-84.37,13.64,16.74,7.5,32.41,8.71,37.09,1.4,5.41,64.57,113.4,2.18,31.27-1.27.59,2.99,15.66,3.63,17.46Z"/><path class="uuid-80c2c426-28b3-4bbb-ba06-b444e4d34b71" d="M649.3,691.68c2.85,4.64,12.63,18.54,13.07,19.64.24.59-5.59,7.01,2.9,10.18-12,11.01-6.1,4.83-14.52-3.64-.5-1.17-2.41-16.22-10.17-23.27-8.8-8-5.02-4.28-11.62,2.91-.14-.36-4.45-5.55-5.81-5.09,6.11-2.98-17.8-31.52-11.62-47.28,12.23,10.69,29.2,32.58,37.76,46.55Z"/><path class="uuid-80c2c426-28b3-4bbb-ba06-b444e4d34b71" d="M887.5,867.69c2.05,1.83,3.44,3.91,5.81,5.82,1.52,1.22,2.55,2.11,4.36,2.91,11.92,5.23,11.14-9.1,20.33-16-2.13,7.56-7.82,13.05-11.62,19.64,11.98,8.79,32.86,11.53,34.86,12.36,8.99,3.76,10.96,4.54,8.71,14.55-17.05-8.43-93.69-47.09-104.58-48,15.69-32.08,21.14-10.01,42.12,8.73Z"/><path class="uuid-80c2c426-28b3-4bbb-ba06-b444e4d34b71" d="M703.04,755.68c-6.07-2.41-5.44,1.38-5.81,1.45-1.13.24-1.91-2.17-4.36-1.45-.5-1.23.34-4.58,0-6.55-9.12-2.59-11.54-13.27-13.8-13.82-5.69-1.39,3.89,16.35.73,19.64-8.44-5.58-9.75-20.27-14.52-5.09-8.16-15.02-8.74-18.42-14.52-32,8.42,8.47,2.52,14.65,14.52,3.64-8.49-3.17-2.67-9.6-2.9-10.18-.45-1.09-10.23-15-13.07-19.64q26.87,32,53.74,64Z"/><path class="uuid-194fbba7-f90f-4c61-a178-2d0f008a42f7" d="M594.1,662.59c-14.35,9.29-18.48,19.54-20.33,21.82-.1.13.47.6-1.45,2.91-.97-4.38-10.74,8.94-7.26,8.73-.24,2.25-2.78,2.74-2.9,2.91-4.99-.23-4.06,3.76-4.36,4.36-4.14,5.55-9.18,10.88-13.07,16.73-1.64,6.02.13,4.87,0,5.09-.21.35.22,1.1,0,1.45-4.01-.77-7.86,7.44-4.36,8.73.16,1.79-1.4,1.37-1.45,1.45-8.53,14.55-11.05,13.77-11.62,14.55,1.9-4.48,2.52-19.41,2.9-20.36,3.59-8.93,14.56-22.25,20.33-30.55,1.1-1.58,2.41-3.7,2.9-4.36,8.15-6.91,15.13-15.38,20.33-24.73,6.97-6.93,10.95-12.53,11.62-13.09,3.85-3.23,7-2.53,9.44-5.82-.16,3.72.7,6.53-.73,10.18Z"/><path class="uuid-80c2c426-28b3-4bbb-ba06-b444e4d34b71" d="M467.74,985.51c-42.09-7.29-58.88-9.49-11.62-33.46,3.94,5.87,12.78,28.03,11.62,33.46Z"/><path class="uuid-80c2c426-28b3-4bbb-ba06-b444e4d34b71" d="M703.04,755.68q7.26,9.46,14.52,18.91,7.99,16.36,15.98,32.73c9.36,13.4,49.25,69.18,14.52,29.09-9.02-10.41-24.17-37.42-20.33-26.18-4.14,3.04-25.89-47.67-30.5-53.09.37-.08-.26-3.86,5.81-1.45Z"/><path class="uuid-e39b16c1-8608-4c56-9da5-9e24d1babb5b" d="M164.17,973.88c-9.61,1.77-22.14,1.66-31.95,4.36-2.68-1.02-5.97-2.13-8.71-2.91-1.36-10.69,17.81-2.34,29.78-14.55q12.71,4.73,25.42,9.46c-4.69,1.92-9.58,2.73-14.52,3.64Z"/><path class="uuid-a995f766-5609-47f0-85ca-63766a8bea46" d="M352.99,962.24c-20.82,6.48-26.21,4.02-27.6,4.36,13.04-18.88-3.17-12.88-12.35,1.45-7.26-8.59-28.48,25.34-44.3,27.64-3.67-20,59.34-49.2,76.26-50.91,20.7-18.37,43.34-34.72,68.99-45.09q-30.5,31.27-61,62.55Z"/><path class="uuid-0fc988df-e755-444b-aa48-59f1ecd350d7" d="M352.99,962.24q30.5-31.27,61-62.55c3.46-1.4,7.84-5.19,10.17-3.64-12.76,12.98-45.02,56.84-57.37,63.28-4.02,2.09-9.55,1.59-13.8,2.91Z"/><path class="uuid-0fc988df-e755-444b-aa48-59f1ecd350d7" d="M325.39,966.6c-.99.25-2.48,3.66-19.61,5.82-14.55,15.44-11.69,23.47-36.31,26.18l-.73-2.91c15.82-2.3,37.04-36.23,44.3-27.64,9.18-14.33,25.38-20.34,12.35-1.45Z"/><path class="uuid-a995f766-5609-47f0-85ca-63766a8bea46" d="M408.19,861.87c.69,2-6.3,5.16-10.17,7.27-21.51,11.75-33.45,25.53-50.84,42.18-9.2,4.04-19.24,5.61-28.32,10.18-13.8,6.95-75.1,53.53-84.24,53.82-15.37.5,48.06-42.04,53.74-45.09,1.86-1,13.82-2.65,20.33-5.82q34.86-26.91,69.72-53.82,14.89-4.36,29.78-8.73Z"/><path class="uuid-e39b16c1-8608-4c56-9da5-9e24d1babb5b" d="M383.49,895.33c-17.45-12.23,12.76-16.23,14.52-26.18,3.86-2.11,10.86-5.27,10.17-7.27,50.9-9.12,95.99-29.95,15.25,4.36-13.53,9.81-25.53,20.41-39.94,29.09Z"/><path class="uuid-80c2c426-28b3-4bbb-ba06-b444e4d34b71" d="M398.02,869.14c-1.77,9.95-31.98,13.95-14.52,26.18-26.54,16-33.34,14.7-36.31,16,17.39-16.66,29.32-30.43,50.84-42.18Z"/><path class="uuid-e438fc7e-5ef7-440e-b0f7-5fed29e94ee7" d="M495.33,751.32c-19.92,21.28-17.63,34.44-19.61,34.91-.36.09-1.54-4.36-2.9-4.36-.58,0-2.12,3.88-5.81,2.91-1.79-.47-2.77-5.12-3.63-5.82,16.13-16.89,33.76-45.05,31.95-27.64Z"/><path class="uuid-80c2c426-28b3-4bbb-ba06-b444e4d34b71" d="M205.56,937.51c3.53.24,1.4,2.29,0,2.91-4.55,2.02-19.9,4.37-27.6,7.27-13.75,5.19-27.97,18.43-38.49,9.46-.06-4.55,62.62-19.88,66.09-19.64Z"/><path class="uuid-83245ece-a229-46aa-9d51-4b8ef1148c6f" d="M123.5,975.33c2.75.78,6.04,1.89,8.71,2.91,7.47,2.84,109.18,58.74,141.62,74.19,4.27,2.04,5.55-.12,5.81,0,23.78,11.25,47.03,24.23,71.17,34.91,9.57,4.23,22.93,7.92,29.78,13.09-39.07,17.68-77.17,37.51-116.2,55.28-87.14-44.13-173.78-88.19-264.35-125.1,0-15.52,0-31.03,0-46.55,16.51,4.34,44.6,28.35,46.48,14.55,52.8,30.14,107.86,87.43,149.61,85.1-29.01-39.71-61.56-77.32-97.32-111.28,8.3.03,15.91.42,24.69,2.91Z"/><path class="uuid-0fc988df-e755-444b-aa48-59f1ecd350d7" d="M34.9,991.33c3.89,2.03,7.7,5.04,11.62,7.27-1.88,13.8-29.96-10.2-46.48-14.55,0-2.42,0-4.85,0-7.27,11.65,4.24,23.89,8.81,34.86,14.55Z"/><path class="uuid-cc0aecc8-ecbe-4771-88cc-e843200b55d1" d="M98.81,972.42c35.76,33.96,68.3,71.57,97.32,111.28-41.74,2.34-96.8-54.96-149.61-85.1-3.92-2.24-7.73-5.24-11.62-7.27,23.1-13.89,36.94-19,63.91-18.91Z"/><path class="uuid-80c2c426-28b3-4bbb-ba06-b444e4d34b71" d="M164.17,973.88c-20.31,8.4,16.16,2.04,61,14.55-16.57.73,34.48,21.78,37.04,21.82.33,0,3.15-2.86,5.08-4.36,9.16,3.44,18.47,6.62,27.6,10.18,24.93,9.72,50.02,19,74.8,29.09,4.57-17.94-10.7-36.82-23.97-48,3.94-.26,9.16-.31,13.07,0,30.14,2.41,94.2,41.63,120.56,61.09-33.29,13.12-66.18,27.43-98.77,42.18-6.84-5.17-20.21-8.86-29.78-13.09-24.14-10.68-47.39-23.66-71.17-34.91-.26-.12-1.54,2.04-5.81,0-32.43-15.45-134.15-71.35-141.62-74.19,9.82-2.7,22.35-2.59,31.95-4.36Z"/><path class="uuid-7628782c-9793-4a84-a4c1-8c5849d87a19" d="M267.29,1005.88c-1.93,1.51-4.75,4.37-5.08,4.36-2.56-.04-53.6-21.09-37.04-21.82,23.86,6.66,36.9,15.49,42.12,17.46Z"/><path class="uuid-e438fc7e-5ef7-440e-b0f7-5fed29e94ee7" d="M575.22,773.14c-10.01,8.02-20.69,15.15-30.5,23.27-1.21,1-3.15,1.9-4.36,2.91-4.23-10.14,24.79-32.67,34.86-26.18Z"/><path class="uuid-80c2c426-28b3-4bbb-ba06-b444e4d34b71" d="M254.95,905.51c13.28-3.37-35.48,36.41-45.75,31.27,6.63-4.41,43.07-30.59,45.75-31.27Z"/><path class="uuid-e42cdf30-479e-4f8e-bfb6-96c4b2c21301" d="M594.83,685.86q-3.27,8.36-6.54,16.73c-48.44,43.83-9.78,5.52,6.54-16.73Z"/><path class="uuid-e39b16c1-8608-4c56-9da5-9e24d1babb5b" d="M505.5,754.23c2.61,2.77,6.26-2.63,8.71-5.82.57,3.41-9.35,20.26-10.17,21.09-20.61,21.05-1.95-7.66,1.45-15.27Z"/><path class="uuid-5757ce86-b101-4251-a9c0-a855d521fa03" d="M527.29,751.32c.57-.78,3.09,0,11.62-14.55.55,18.71-31.42,41.7-11.62,14.55Z"/><path class="uuid-60cf4dbb-ad03-47fc-8c1f-55dbf271ce28" d="M594.83,716.41c-.67,5.01-8.37,20.11-10.89,24-16.89,26.02-10.12,5.36,10.89-24Z"/><path class="uuid-cc0aecc8-ecbe-4771-88cc-e843200b55d1" d="M594.1,662.59c-2.57,6.58-14.81,15.6-20.33,21.82,1.85-2.28,5.98-12.53,20.33-21.82Z"/><path class="uuid-cc0aecc8-ecbe-4771-88cc-e843200b55d1" d="M557.79,703.32c-3.78,7.61-7.61,15.24-13.07,21.82.13-.22-1.64.93,0-5.09,3.89-5.84,8.93-11.17,13.07-16.73Z"/><path class="uuid-0fc988df-e755-444b-aa48-59f1ecd350d7" d="M255.67,877.87c-7.23,3.69-14.03,8.99-21.06,13.09q-.36-1.09-.73-2.18c11.57-6.71,22.56-41.38,24.69-42.91,6.8,17-9.14,29.03-2.9,32Z"/><path class="uuid-39cb526d-d632-41a6-ba00-a228823385d2" d="M212.1,873.51c-12.09,45.84-32.31,34.94-4.36,0,1.62.1,3.69-.27,4.36,0Z"/><path class="uuid-e39b16c1-8608-4c56-9da5-9e24d1babb5b" d="M271.65,851.69q-7.26,13.09-14.52,26.18c-.38.2-1.07-.2-1.45,0-6.23-2.97,9.7-15,2.9-32,5.14-3.7,9.15,2.36,13.07,5.82Z"/><path class="uuid-80c2c426-28b3-4bbb-ba06-b444e4d34b71" d="M281.82,863.32v1.45c-8.24,4.08-16.42,8.87-24.69,13.09q7.26-13.09,14.52-26.18c4.1,3.62,6.68,7.57,10.17,11.64Z"/><path class="uuid-5e20773f-ac0b-4cc3-9966-6c185d0abd8f" d="M207.74,873.51c-27.96,34.94-7.73,45.84,4.36,0,1.43.58,4.67-.92,5.81.73-6.94,8.27-11.59,17.24-14.52,27.64-5.07,6.48-10.96,4.76-11.62,5.09-1.67-2.19-1.31-4.18-1.45-4.36,4.54-7.59,4.13-16.31,8.71-24,8.18-13.72,8.02-5.13,8.71-5.09Z"/><path class="uuid-18577e37-0ab5-4ed9-a4d9-8ab2fbc167f2" d="M246.23,851.69l2.18.73c-40.97,61.81-47.14,60.73-2.18-.73Z"/><path class="uuid-39cb526d-d632-41a6-ba00-a228823385d2" d="M156.91,879.33c.05.95.1,1.97,0,2.91-7.26,10.63-12.61,23.14-20.33,33.46-8.78,5.54-8.25,3.4-4.36-5.09-.92-1.74-1.86,1.27-2.9.73-1.4-.72-4.3,1.64-4.36-2.18-.02-1.15,15.79-16.96,12.35-18.18-.64-.23-11.09,10.28-3.63-3.64,1.54-2.87,12.24-11.07,15.98-9.46-5.71,15.52,7.66-12.71,7.26,1.45Z"/><path class="uuid-18577e37-0ab5-4ed9-a4d9-8ab2fbc167f2" d="M130.03,873.51c5.44,2.43-25.4,35.09-20.33,37.82,47.24-62.15-2.57,9.86-18.88,29.09,13.43-23.12,21.62-46.05,39.22-66.91Z"/><path class="uuid-9b6bbaed-11a0-4bdc-a935-baa0721efc13" d="M190.31,902.6c.14.18-.22,2.17,1.45,4.36-9.84,4.87-17.8,6.56-27.6,10.18q1.82-13.82,3.63-27.64c-3.94,12.12-10.27,29.58-13.8,18.91,6.53-10.68,11.8-19.12,13.8-32,5.41,8.97,16.68,18.56,22.51,26.18Z"/><path class="uuid-80c2c426-28b3-4bbb-ba06-b444e4d34b71" d="M164.17,917.15c-4.36,1.61-10.33,3.96-10.89,8.73-16.5-5.41-14.92,8.12.73-17.46,3.53,10.67,9.85-6.79,13.8-18.91q-1.82,13.82-3.63,27.64Z"/><path class="uuid-5e20773f-ac0b-4cc3-9966-6c185d0abd8f" d="M136.57,915.69c-1.01,1.35-3.6,11.32-10.89,7.27-1.55,3.3-4.01,8.37-7.26,10.18-16.13,8.98,7.76-8.54,10.89-21.82,1.05.54,1.98-2.47,2.9-.73-3.89,8.49-4.43,10.63,4.36,5.09Z"/><path class="uuid-18577e37-0ab5-4ed9-a4d9-8ab2fbc167f2" d="M98.08,912.78c2.78-.94.91,4.65.73,5.09-4.66,11.09-42.96,52.08-.73-5.09Z"/><path class="uuid-3ee5e269-f319-4dff-9e85-5867730f9032" d="M136.57,915.69c7.73-10.32,13.07-22.82,20.33-33.46-.95,8.5-13.19,28.95-20.33,33.46Z"/><path class="uuid-18577e37-0ab5-4ed9-a4d9-8ab2fbc167f2" d="M115.51,912.78c2.68.47-10.1,21.19-13.07,23.27-6.88,4.83,10.05-17.6,12.35-22.55l.73-.73Z"/><path class="uuid-1b4c82e0-91bc-4323-a517-c1c933da47dd" d="M156.91,879.33c.4-14.16-12.98,14.06-7.26-1.45,3.42-9.29,6.72-9.65,7.26,1.45Z"/><path class="uuid-e42cdf30-479e-4f8e-bfb6-96c4b2c21301" d="M572.32,687.31c-2.43,2.92-4.36,6.19-7.26,8.73-3.48.21,6.29-13.1,7.26-8.73Z"/><path class="uuid-cc0aecc8-ecbe-4771-88cc-e843200b55d1" d="M544.72,726.59c-1.68,2.75-2.75,5.92-4.36,8.73-3.51-1.29.35-9.5,4.36-8.73Z"/><path class="uuid-cc0aecc8-ecbe-4771-88cc-e843200b55d1" d="M562.15,698.95c-2.56,3.42-4.17,4.12-4.36,4.36.3-.6-.63-4.59,4.36-4.36Z"/><path class="uuid-7628782c-9793-4a84-a4c1-8c5849d87a19" d="M852.64,972.42c-1.81.08-3.56,1.25-8.71,1.45.82-2.91-10.46-3.87-15.25-5.82-28.37-11.55-102.89-50.41-122.73-71.28-31.47-48.7-60.84-85.21-109.66-117.82-8.93-7.12-3.54-9.56-3.63-10.18,46.92,25.57,114.49,70.43,156.14,103.28,12.67,9.99,105.67,91,106.76,98.19.15.97-3.27.21-2.9,2.18Z"/><path class="uuid-cc0aecc8-ecbe-4771-88cc-e843200b55d1" d="M624.6,938.96q25.42,29.09,50.84,58.19c-9.83,2.15-19.31,4.91-29.05,7.27-28.04-28.97-62.3-27.93-94.41-43.64,29.68-18.24,36.15-32.65,72.62-21.82Z"/><path class="uuid-9b6bbaed-11a0-4bdc-a935-baa0721efc13" d="M843.93,973.88c-13.44.54-47.01,3.45-53.02,2.91-6.43-.58-64.17-16.77-68.99-26.18-6.67-17.45-10.42-36-15.98-53.82,19.85,20.86,94.36,59.73,122.73,71.28,4.79,1.95,16.07,2.91,15.25,5.82Z"/><path class="uuid-80c2c426-28b3-4bbb-ba06-b444e4d34b71" d="M958.68,965.15c-6.3.49-12.58.98-18.88,1.45-11.35-5.75-22.25-12.92-33.41-18.91,17.88-3.48-22.12-6.99-7.26-23.27,4.71,6.68,49.07,31.36,59.55,40.73Z"/><path class="uuid-80c2c426-28b3-4bbb-ba06-b444e4d34b71" d="M1003.7,962.24c-1.91.16-3.9-.16-5.81,0-30.71-22.48-64.32-40.86-95.86-61.82.98-.07,3.42-2.2,3.63-2.18,5.82.63,87.58,54.88,98.04,64Z"/><path class="uuid-80c2c426-28b3-4bbb-ba06-b444e4d34b71" d="M692.87,755.68c7.26,17.77,12.07,39.56,17.43,58.19-2.45-1.99-4.77-3.73-7.26-5.82-11.75-19.75-26.79-37.99-37.76-58.19,4.77-15.18,6.08-.49,14.52,5.09,3.16-3.29-6.42-21.03-.73-19.64,2.26.55,4.68,11.23,13.8,13.82.34,1.97-.5,5.32,0,6.55Z"/><path class="uuid-9b6bbaed-11a0-4bdc-a935-baa0721efc13" d="M640.58,694.59c-7.21,12.47,3.77,35.35,10.17,48.73,14.67,30.7,27.33,43.82,52.29,64.73,2.49,2.08,4.81,3.82,7.26,5.82,38.17,31.03,79.7,58.49,120.56,85.82,33.37,22.32,34.91,26.21,75.53,48,11.16,5.99,22.06,13.16,33.41,18.91-29.15,2.19-57.92,4.48-87.15,5.82-.36-1.97,3.05-1.21,2.9-2.18-1.08-7.19-94.09-88.2-106.76-98.19-41.65-32.85-109.23-77.71-156.14-103.28-.13-.92-1.2-1.26-1.45-5.82.28-.26,3.46-.79,2.9-4.36,2.21-1.96,5.5-.17,8.71-5.82q10.89,4.73,21.79,9.46-8.71-12.73-17.43-25.46c.21-1.57,2.16-2.17,1.45-4.36,2.6,1.84,1.09,4.66,5.81,1.45,10.04,27.96,33.67,44.3,58.1,58.91-5.54-15.56-29.31-47.87-31.95-53.82-.87-1.97-7.81-31.53-11.62-41.46,6.6-7.19,2.82-10.91,11.62-2.91Z"/><path class="uuid-8f0f68a5-e2c6-47d3-aef4-96801150603f" d="M602.82,752.77c.78-5.56,3.61-10.43,4.36-16q8.71,12.73,17.43,25.46-10.89-4.73-21.79-9.46Z"/><path class="uuid-45a71af6-bf44-445a-905b-e4d15d14b41c" d="M594.1,758.59c.56,3.57-2.63,4.11-2.9,4.36-.05-.96.02-1.94,0-2.91,1.43-1.29,2.78-1.35,2.9-1.45Z"/><path class="uuid-0fc988df-e755-444b-aa48-59f1ecd350d7" d="M650.75,717.86c5.78,13.58,6.36,16.98,14.52,32,10.97,20.2,26.01,38.44,37.76,58.19-24.96-20.92-37.62-34.04-52.29-64.73-6.4-13.38-17.38-36.26-10.17-48.73,7.76,7.06,9.67,22.11,10.17,23.27Z"/><path class="uuid-2800484c-c2bb-43c9-a509-650f6677e74c" d="M809.8,908.42c1.38.2,3.08-.29,4.36,0,3.05.69,44.66,31.75,50.84,36.37,3.35,2.51,20.99,14.91,21.79,16,6.24,8.56-6.1,7.53-15.98,2.91-3.74-1.75-57-46.2-61-55.28Z"/><path class="uuid-a995f766-5609-47f0-85ca-63766a8bea46" d="M591.2,790.59c1.07,19.8-12.51,111.31-21.79,135.28-13.67,5.01-27.78,10.78-41.4,14.55q.36-1.45.73-2.91c16.33-28.07,43.86-123.41,56.65-160.01,6.35-8.95,5.57,8.65,5.81,13.09Z"/><path class="uuid-80c2c426-28b3-4bbb-ba06-b444e4d34b71" d="M599.91,802.23c3.68,4.19,9.99,7.61,13.07,12.36,20.61,31.8,2.82,59.23,0,93.1-1.46,2.97-12.71,6.36-15.98,8-5.62-1.72-14.06,7.75-14.52-2.18-.18-3.81,8.88-62.78,10.17-75.64,1.05-10.47-1.43-40.87,7.26-35.64Z"/><path class="uuid-0fc988df-e755-444b-aa48-59f1ecd350d7" d="M599.91,802.23c-8.69-5.23-6.21,25.17-7.26,35.64-1.29,12.86-10.34,71.83-10.17,75.64.46,9.93,8.91.47,14.52,2.18-9.27,4.66-18.08,6.7-27.6,10.18,9.28-23.97,22.86-115.48,21.79-135.28,3.79,2.71,8.23,11.09,8.71,11.64Z"/><path class="uuid-8ba640ba-1f36-4068-818f-5b92acd52351" d="M634.77,940.42c.39.15,1.6,4.13,2.18,4.36,18.78,7.49,24.79,12.49,26.14,13.09,19.41,8.54,39.99,14.64,58.1,26.18q21.79-2.18,43.57-4.36-.36-1.45-.73-2.91c.24.13,3.27.63,5.08,1.45v2.91c-31.86,2.74-62.6,9.21-93.69,16q-25.42-29.09-50.84-58.19c3.86,1.15,9.5,1.2,10.17,1.45Z"/><path class="uuid-80c2c426-28b3-4bbb-ba06-b444e4d34b71" d="M669.63,896.78c-12.8,5.17,24.99,47.23,31.95,52.37,5.53,6.54,14.67,6.82,21.79,10.18,12.71,6,31.16,12.29,40.67,17.46q.36,1.45.73,2.91-21.79,2.18-43.57,4.36c-18.11-11.54-38.69-17.65-58.1-26.18-1.36-.6-7.36-5.6-26.14-13.09-.58-.23-1.79-4.22-2.18-4.36,4.06-13.61,17.73-48.9,34.86-43.64Z"/><path class="uuid-80c2c426-28b3-4bbb-ba06-b444e4d34b71" d="M701.59,949.15c-6.97-5.14-44.76-47.19-31.95-52.37,17.32,5.32,24.77,37.75,31.95,52.37Z"/><path class="uuid-80c2c426-28b3-4bbb-ba06-b444e4d34b71" d="M826.5,864.78c-1.57.88-4.63-2.93-5.81-.73-.63,1.18,2,20.92,5.81,24-9.04-12.86-18.24-23.99-26.14-37.82-13.87-24.26-25.41-40.55-14.52-50.91,2.23-1.33,2.58-6.16,5.81-3.64-1.71,12.32,4.86,48.85,18.88,42.18-14.34.67-15.13-48.24-11.62-37.82.79,2.33-1.9,12.36,4.36,7.27,23.47,27.87,14.71,46.15,23.24,57.46Z"/><path class="uuid-0fc988df-e755-444b-aa48-59f1ecd350d7" d="M697.23,757.14c4.61,5.42,26.37,56.13,30.5,53.09-3.84-11.24,11.31,15.77,20.33,26.18,34.73,40.09-5.16-15.7-14.52-29.09q-7.99-16.36-15.98-32.73c.26-2.27,2.79-2.74,2.9-2.91,1.93,1.12,4.5,1.61,5.81,3.64,4.22,6.53,40.25,73.22,44.3,72-3.62-11.61-37.6-64.02-38.49-70.55-4.75-34.81,20.38,28.14,21.79,30.55,1.03,1.77,8.97,11.54,7.26,5.09,12.59,6.69.34,4.27,0,5.09-1.65,3.91,40.24,64.44,52.29,65.46-7.61-8.83-14.28-16.82-20.33-26.91q3.63-2.91,7.26-5.82c7.91,13.83,17.11,24.96,26.14,37.82,4.43,6.31,4.96,3.69,4.36,11.64-40.86-27.33-82.38-54.8-120.56-85.82-5.36-18.62-10.17-40.41-17.43-58.19,2.44-.71,3.23,1.7,4.36,1.45Z"/><path class="uuid-80c2c426-28b3-4bbb-ba06-b444e4d34b71" d="M842.48,858.96c.49.64-4.03-.46,7.26,12.36,5.23,5.32,11.58,9.27,17.43,13.82-5.73,8.09-38-16.83-40.67-20.36-8.52-11.31.23-29.59-23.24-57.46-6.25,5.09-3.57-4.94-4.36-7.27-3.51-10.42-2.72,38.49,11.62,37.82-14.03,6.67-20.59-29.86-18.88-42.18-3.23-2.52-3.58,2.31-5.81,3.64-5.21,3.1-9.45,6.96-14.52,10.18q-14.89-21.82-29.78-43.64c4.68,18.48,21.68,36.17,19.61,46.55,1.71,6.45-6.23-3.32-7.26-5.09-1.41-2.41-26.54-65.35-21.79-30.55.89,6.53,34.87,58.94,38.49,70.55-4.05,1.22-40.08-65.48-44.3-72-1.31-2.02-3.88-2.51-5.81-3.64,4.89-7.08,10.2-13.33,19.61-14.55q15.98,24,31.95,48c2.47-3.38,17.84-14.92,20.33-14.55,4.19.62,43.57,59.84,50.11,68.37Z"/><path class="uuid-80c2c426-28b3-4bbb-ba06-b444e4d34b71" d="M771.31,809.5c6.86,15.74,12.9,31.75,21.79,46.55,6.06,10.09,12.73,18.08,20.33,26.91-12.05-1.02-53.94-61.55-52.29-65.46.34-.82,12.59,1.6,0-5.09,2.07-10.38-14.93-28.07-19.61-46.55q14.89,21.82,29.78,43.64Z"/><path class="uuid-8ba640ba-1f36-4068-818f-5b92acd52351" d="M800.36,850.23q-3.63,2.91-7.26,5.82c-8.89-14.79-14.92-30.81-21.79-46.55,5.08-3.23,9.32-7.09,14.52-10.18-10.89,10.36.66,26.66,14.52,50.91Z"/><path class="uuid-a84c4058-04d1-4100-a460-9c302843f92b" d="M411.09,760.05c-4.14-.69-2.58,2.53-2.9,2.91-13.46,15.44-20.26,18.43-27.6,40.73-6.36,7.15-10.34,10.08-17.43,16l-4.36-.73c5.28-1.49,4.79-5.61,5.81-8,11.88-16.48,15.01-27.99,5.81-13.09-3.58-3.78,12.87-21.69,1.45-12.36q-15.25,25.09-30.5,50.18c-3.69,2.26-6.37,6.6-11.62,5.82q16.7-28.37,33.41-56.73l2.18-4.36c23.23-6.26,50.11-35.17,45.75-20.36Z"/><path class="uuid-e438fc7e-5ef7-440e-b0f7-5fed29e94ee7" d="M351.54,800.78c-10.81,15.25-18.49,33.04-31.95,46.55-12.19,6.54-25.37,11.33-37.76,17.46v-1.45c10.21-6.84,17.38-11.25,28.32-14.55,7.45-15.35,29.14-52.82,41.4-48Z"/><path class="uuid-194fbba7-f90f-4c61-a178-2d0f008a42f7" d="M370.42,797.87c-2.62,4.25-3.89,8.61-5.81,13.09-1.02,2.39-.53,6.51-5.81,8l4.36.73c-17.41,14.54-13.07,8.23-13.8,8.73-2.89,1.97-4.68,5.25-7.99,7.27q15.25-25.09,30.5-50.18c11.42-9.33-5.03,8.58-1.45,12.36Z"/><path class="uuid-5757ce86-b101-4251-a9c0-a855d521fa03" d="M329.75,841.51c-5.97,5.63-9.65,5.54-10.17,5.82,13.46-13.5,21.14-31.3,31.95-46.55,3.72-5.24,5.87-12.26,11.62-16q-16.7,28.37-33.41,56.73Z"/><path class="uuid-1b4c82e0-91bc-4323-a517-c1c933da47dd" d="M409.64,762.96c-4.62,10.23-21.05,31.74-29.05,40.73,7.33-22.3,14.14-25.29,27.6-40.73h1.45Z"/><path class="uuid-5757ce86-b101-4251-a9c0-a855d521fa03" d="M401.65,786.23c1.23,5.51-20.75,39.86-22.51,41.46-13.91,12.54,14.58-25.06,22.51-41.46Z"/><path class="uuid-57fb60e4-2e10-4240-a646-4b7177233e64" d="M411.09,760.05c-1.14,3.88-1.39,2.76-1.45,2.91h-1.45c.33-.37-1.23-3.6,2.9-2.91Z"/><path class="uuid-703495de-8b11-4b77-ab54-7f004aedaf38" d="M364.61,810.96c1.92-4.48,3.19-8.84,5.81-13.09,9.2-14.9,6.07-3.39-5.81,13.09Z"/><path class="uuid-80c2c426-28b3-4bbb-ba06-b444e4d34b71" d="M463.38,778.96c.87.7,1.84,5.35,3.63,5.82,3.69.97,5.23-2.91,5.81-2.91,1.37,0,2.54,4.45,2.9,4.36,1.98-.47-.32-13.63,19.61-34.91-.77,7.46-14.93,20.06-12.35,34.91l-2.9-5.82c-3.28-.24,10.66,13.27-51.56,36.37,5.5-9.15,11.6-16.16,15.98-26.18,1.02-2.34,5.37-6.99,5.81-10.91-3.14-10.53-9.57-9.53-13.07-20.36-1.96-1.99-1.3,2.08-1.45,2.18-3.34,2.22-3.49,2.49-5.81,5.82-.45-4.41-1.43-10.25-2.9-14.55.57-.91,1.82-4.34,2.18-4.36,11.62,9.89,22.29,20.92,34.13,30.55Z"/><path class="uuid-80c2c426-28b3-4bbb-ba06-b444e4d34b71" d="M400.92,825.5c-19.11,5.75,2.75-18.87,7.26-28.37,5.58-11.73,7.9-21.17,14.52-34.18,8.26,24.75-13.98,41.39-21.79,62.55Z"/><path class="uuid-4e607e83-a2dc-46ff-92ca-5bf55628d6f2" d="M429.97,767.32c2.19,21.34,9.14,41.45-2.9,39.27,7.96-31.77-20.88,15.32-24.69,17.46-.09.05.59.84-1.45,1.45,7.8-21.16,30.05-37.79,21.79-62.55,1.79-3.53,4.06-9.71,4.36-10.18,1.47,4.3,2.45,10.13,2.9,14.55Z"/><path class="uuid-9b6bbaed-11a0-4bdc-a935-baa0721efc13" d="M435.78,761.5c2.43,9.96,9.67,18.72,8.71,29.09-4.38,10.02-10.48,17.03-15.98,26.18-3.33,1.23-6.68,3.32-10.17,4.36.57-4.62,7.02-7.8,8.71-14.55,12.05,2.17,5.09-17.93,2.9-39.27,2.32-3.33,2.47-3.6,5.81-5.82Z"/><path class="uuid-0fc988df-e755-444b-aa48-59f1ecd350d7" d="M427.07,806.59c-1.69,6.75-8.15,9.93-8.71,14.55-5.26,1.58-10.29,3.65-15.98,2.91,3.82-2.14,32.65-49.23,24.69-17.46Z"/><path class="uuid-9b6bbaed-11a0-4bdc-a935-baa0721efc13" d="M444.5,790.59c.95-10.37-6.29-19.13-8.71-29.09.15-.1-.5-4.17,1.45-2.18,3.5,10.83,9.93,9.84,13.07,20.36-.44,3.92-4.79,8.57-5.81,10.91Z"/><path class="uuid-7628782c-9793-4a84-a4c1-8c5849d87a19" d="M954.32,888.05c9.38,8.82,12.37,13.66,15.98,5.82,63.41,64.78,67.8,56.65-20.33,13.09,2.25-10,.28-10.79-8.71-14.55-1.46-6.57,4.24-3.92,13.07-4.36Z"/><path class="uuid-80c2c426-28b3-4bbb-ba06-b444e4d34b71" d="M951.41,810.96l-2.9.73c3.43,6.35,7.77,12.11,11.62,18.18,1.13,1.78,1.4,1.37,1.45,1.45.96,2.96,1.77,7.71,2.9,10.18-24.72-18.82,8.57,29.07,8.71,35.64.08,3.45-2.6,1.83-2.9,2.18-4.97-10.55-22.34-47.78-26.14-53.09-15.9-22.18-6.87,19.46,23.24,56,.24.29-.24,1.17,0,1.45.15,3.81-.31,2.9-2.9,1.45-12.54-12.99-30.29-20.18-43.57-49.46.64-3.29.84-6.95,1.45-10.18,2.82-14.83,2.53-22.85,2.9-24,4.32-13.1,21.34,5.71,26.14,9.46Z"/><path class="uuid-0fc988df-e755-444b-aa48-59f1ecd350d7" d="M964.49,841.51c1.82,3.98,21.42,39.53,23.24,42.18,1.12,1.63,1.39,1.37,1.45,1.45,1.09,9.36,8.25,12.46,14.52,17.46,3.44,2.74,6.57,4.83,10.17,7.27q-5.81,1.45-11.62,2.91c-15.54-10.86-19.92-11.51-34.86-29.09-.24-.28.24-1.17,0-1.45,4.14.69,2.57-2.52,2.9-2.91.3-.35,2.98,1.27,2.9-2.18-.15-6.57-33.44-54.45-8.71-35.64Z"/><path class="uuid-0fc988df-e755-444b-aa48-59f1ecd350d7" d="M1044.37,927.33c8.47,6.4,21.72,16.5,16.7,20.36-3.4.37-52.32-30.37-58.83-34.91q5.81-1.45,11.62-2.91c8.93,6.06,11.81,3.99,12.35,4.36,4.02,2.77,5.42,7.01,5.81,7.27.57.38,10.28,4.26,12.35,5.82Z"/><path class="uuid-80c2c426-28b3-4bbb-ba06-b444e4d34b71" d="M964.49,885.14c.36.38-.57,2.21,5.81,8.73-3.61,7.84-6.59,3-15.98-5.82-.1-.09,3.01-.75,1.45-2.18-13.15-12.1-28.01-21.72-36.31-38.55.35-1.58.36-6.09,1.45-11.64,13.29,29.28,31.03,36.47,43.57,49.46Z"/><path class="uuid-0fc988df-e755-444b-aa48-59f1ecd350d7" d="M1035.66,905.51c-3.04,3.39,10.23,7.85,8.71,21.82-2.06-1.56-11.78-5.44-12.35-5.82-.39-.26-1.79-4.51-5.81-7.27-.54-.37-3.41,1.7-12.35-4.36-3.6-2.44-6.73-4.54-10.17-7.27-2.35-5.11-10.4-11.72-14.52-17.46-.06-.08-.34.17-1.45-1.45-1.94-19.36-15.87-36.3-26.14-52.37-.06-.09-.32.33-1.45-1.45,4.41-1.82-7.05-10.19-8.71-18.91,33.28,25.96,53.54,65.59,84.24,94.55Z"/><path class="uuid-9b6bbaed-11a0-4bdc-a935-baa0721efc13" d="M987.73,883.69c-1.82-2.65-21.42-38.21-23.24-42.18-1.13-2.47-1.95-7.22-2.9-10.18,10.27,16.07,24.21,33.01,26.14,52.37Z"/><path class="uuid-9b6bbaed-11a0-4bdc-a935-baa0721efc13" d="M1001.52,869.14c2.12,3.2,11.55,27.26,7.26,26.18q-3.63-13.09-7.26-26.18Z"/><path class="uuid-80c2c426-28b3-4bbb-ba06-b444e4d34b71" d="M1003.7,902.6c-6.28-5-13.44-8.1-14.52-17.46,4.13,5.73,12.18,12.35,14.52,17.46Z"/><path class="uuid-9b6bbaed-11a0-4bdc-a935-baa0721efc13" d="M951.41,810.96c1.67,8.72,13.13,17.09,8.71,18.91-3.85-6.08-8.19-11.83-11.62-18.18l2.9-.73Z"/><path class="uuid-8ba640ba-1f36-4068-818f-5b92acd52351" d="M970.3,879.33c-.33.39,1.23,3.6-2.9,2.91-30.11-36.54-39.14-78.18-23.24-56,3.81,5.31,21.17,42.55,26.14,53.09Z"/><path class="uuid-e39b16c1-8608-4c56-9da5-9e24d1babb5b" d="M954.32,888.05c-8.83.44-14.54-2.2-13.07,4.36-2-.84-22.88-3.57-34.86-12.36,3.8-6.59,9.49-12.08,11.62-19.64.24-.86-.13-6,1.45-13.09,8.31,16.82,23.17,26.45,36.31,38.55,1.55,1.43-1.55,2.09-1.45,2.18Z"/><path class="uuid-e438fc7e-5ef7-440e-b0f7-5fed29e94ee7" d="M922.36,825.5c-.61,3.23-.81,6.89-1.45,10.18-1.09,5.54-1.1,10.06-1.45,11.64-1.59,7.09-1.21,12.23-1.45,13.09-9.2,6.91-8.42,21.23-20.33,16,.4-5.84-.34-8.29-4.36-2.91-2.37-1.91-3.76-3.99-5.81-5.82,3.66,1.58,4.67-3.98,5.81-7.27-2.54,8.31,6.17.27,13.07-8,1.43-1.71,18.44-27.99,10.17-20.36-1.85,1.7-17.61,28.26-19.61,26.91-.9-11.85,7.72-21.21,10.89-32,16.33-22.24,14.78-16.88,14.52-1.45Z"/><path class="uuid-95eb3efa-0408-47dd-9156-c1dd6348597a" d="M893.31,860.42c4.83-14.01,5.08-20.58,14.52-33.46-3.17,10.79-11.8,20.16-10.89,32,2,1.35,17.76-25.21,19.61-26.91,8.27-7.62-8.74,18.65-10.17,20.36-6.9,8.27-15.62,16.31-13.07,8Z"/><path class="uuid-9b6bbaed-11a0-4bdc-a935-baa0721efc13" d="M897.67,876.42c-1.81-.79-2.84-1.69-4.36-2.91,4.02-5.38,4.76-2.93,4.36,2.91Z"/><path class="uuid-a84c4058-04d1-4100-a460-9c302843f92b" d="M585.39,658.22c-.67.56-4.65,6.16-11.62,13.09-12.09,12.03-11.25,12.46-20.33,24.73-1.56,1.32-3.68,1.4-2.9,4.36-5.78,8.3-16.74,21.61-20.33,30.55-7.18-4.68-7.09,2.58-10.17,5.82-.2.21-2.41.3-3.63,4.36-7.85-3.94,25.86-47.87,3.63-20.36-.87.2-2.94-2-2.9-2.18.92-5.26,58.39-54.63,66.09-64.73q1.09,2.18,2.18,4.36Z"/><path class="uuid-18577e37-0ab5-4ed9-a4d9-8ab2fbc167f2" d="M520.03,736.77c-.78,4.37-3.15,8.18-5.81,11.64-2.46,3.19-6.1,8.59-8.71,5.82,2.69-6.02,5.27-18.18,14.52-33.46,22.23-27.51-11.48,16.42-3.63,20.36,1.22-4.06,3.44-4.16,3.63-4.36Z"/><path class="uuid-5757ce86-b101-4251-a9c0-a855d521fa03" d="M553.43,696.04c9.08-12.27,8.25-12.7,20.33-24.73-5.2,9.34-12.19,17.82-20.33,24.73Z"/><path class="uuid-3ee5e269-f319-4dff-9e85-5867730f9032" d="M533.82,707.68c2.36,1.02-.13,6.92-2.18,3.64-.74-1.19,1.97-3.73,2.18-3.64Z"/><path class="uuid-5757ce86-b101-4251-a9c0-a855d521fa03" d="M550.53,700.41c-.77-2.97,1.35-3.04,2.9-4.36-.49.66-1.8,2.78-2.9,4.36Z"/><path class="uuid-0fc988df-e755-444b-aa48-59f1ecd350d7" d="M826.5,864.78c2.67,3.54,34.94,28.46,40.67,20.36,5.15,4.01,28.8,15.9,30.5,21.09,2.22,6.78-3.93,10.56,1.45,18.18-14.86,16.28,25.14,19.8,7.26,23.27-40.61-21.79-42.16-25.68-75.53-48,.61-7.95.08-5.33-4.36-11.64-3.81-3.08-6.44-22.82-5.81-24,1.17-2.2,4.24,1.6,5.81.73Z"/><path class="uuid-9b6bbaed-11a0-4bdc-a935-baa0721efc13" d="M835.94,886.6c10.73,7.92,28.54,16.26,37.76,23.27,53.64,40.75-24.15,8.93-37.76-23.27Z"/></g></svg>
