<?xml version="1.0" encoding="utf-8"?>
<!-- Generator: Adobe Illustrator 22.0.1, SVG Export Plug-In . SVG Version: 6.00 Build 0)  -->
<svg version="1.1" id="Layer_1" xmlns="http://www.w3.org/2000/svg" xmlns:xlink="http://www.w3.org/1999/xlink" x="0px" y="0px"
	 width="119px" height="119px" viewBox="0 0 119 119" style="enable-background:new 0 0 119 119;" xml:space="preserve">
<style type="text/css">
	.st0{clip-path:url(#SVGID_2_);fill:url(#SVGID_3_);}
</style>
<g>
	<defs>
		<path id="SVGID_1_" d="M60.511,64.313l-0.112,0.583l0.808,0.265c0.14,0.045,0.182,0.14,0.182,0.295v4.998
			c0,0.212-0.027,0.254-0.222,0.28l-1.009,0.083v0.629h3.368v-0.613l-0.975-0.098c-0.212-0.027-0.225-0.057-0.225-0.28v-6.142
			H60.511z M68.456,64.313l-0.136,0.613l0.947,0.11l-2.081,5.544l-2.081-5.544l0.996-0.11v-0.613h-2.643l-0.14,0.613l0.6,0.129
			c0.168,0.038,0.237,0.064,0.297,0.231l2.412,6.161h1.062l2.388-6.199c0.07-0.167,0.155-0.193,0.352-0.239l0.447-0.083v-0.613
			H68.456z M89.173,64.313l-0.116,0.583l0.812,0.265c0.136,0.045,0.182,0.14,0.182,0.295v4.998c0,0.212-0.027,0.254-0.222,0.28
			l-1.009,0.083v0.629h3.366v-0.613l-0.981-0.098c-0.205-0.027-0.222-0.057-0.222-0.28v-6.142H89.173z M102.242,64.313l-0.138,0.613
			l0.962,0.11l-2.079,5.154l-1.999-5.154l0.95-0.11v-0.613h-2.653l-0.138,0.613l0.572,0.136c0.167,0.045,0.221,0.072,0.292,0.238
			l2.457,6.009l-0.89,2.064c-0.087,0.197-0.129,0.28-0.297,0.295l-0.975,0.11v0.629h3.433v-0.613l-1.312-0.125l3.533-8.437
			c0.072-0.152,0.17-0.212,0.348-0.239l0.477-0.068v-0.613H102.242z M53.763,65.188l-0.042-0.011l-0.114-0.863h-1.577l-0.108,0.583
			l0.807,0.265c0.14,0.045,0.182,0.14,0.182,0.295v4.998c0,0.212-0.026,0.254-0.223,0.28l-0.727,0.083v0.629h2.95v-0.613
			l-0.837-0.098c-0.212-0.027-0.227-0.057-0.227-0.28V66.07c0.42-0.39,1.409-1.049,2.429-1.049c1.032,0,1.426,0.659,1.426,2.094
			v3.355c0,0.208-0.024,0.239-0.225,0.265l-0.721,0.083v0.629h2.946v-0.613l-0.841-0.098c-0.208-0.027-0.223-0.057-0.223-0.28
			v-3.631c0-1.617-0.53-2.651-2.162-2.651C55.354,64.173,54.462,64.676,53.763,65.188 M74.1,64.994c0.979,0,1.804,0.591,1.827,2.317
			h-3.908C72.144,65.585,73.037,64.994,74.1,64.994 M71.014,67.846c0,2.106,0.784,3.768,3.253,3.768
			c0.979,0,1.776-0.224,2.403-0.583l-0.348-0.788c-0.67,0.371-1.113,0.519-1.984,0.519c-1.687,0-2.302-1.102-2.344-2.692h4.872
			c0.013-0.212,0.028-0.409,0.028-0.602c0-2.386-1.159-3.294-2.806-3.294C72.38,64.173,71.014,65.347,71.014,67.846 M79.562,65.206
			l-0.129-0.894h-1.588l-0.114,0.583l0.81,0.265c0.14,0.045,0.184,0.14,0.184,0.295v4.998c0,0.212-0.03,0.254-0.225,0.28
			l-0.725,0.083v0.629h3.364v-0.613l-1.259-0.098c-0.208-0.027-0.222-0.057-0.222-0.28v-4.411c0.365-0.364,1.187-1.034,1.929-1.034
			c0.136,0,0.151,0.027,0.168,0.125l0.178,1.064l0.714,0.038v-1.939c-0.254-0.072-0.598-0.125-0.924-0.125
			C80.747,64.173,80.024,64.771,79.562,65.206 M83.278,66.252c0,1.48,1.214,1.745,2.316,2.011c0.894,0.223,1.704,0.451,1.704,1.356
			c0,0.837-0.67,1.215-1.689,1.215c-0.769,0-1.314-0.182-1.509-0.254c-0.123-0.042-0.142-0.095-0.152-0.178l-0.167-0.924
			l-0.714-0.045v1.719c0.25,0.14,1.356,0.462,2.442,0.462c1.356,0,2.692-0.504,2.692-2.079c0-1.465-1.181-1.791-2.257-2.068
			c-0.924-0.238-1.776-0.447-1.776-1.329c0-0.651,0.475-1.185,1.634-1.185c0.502,0,0.964,0.102,1.159,0.167
			c0.125,0.042,0.142,0.102,0.153,0.182l0.167,0.924l0.716,0.042v-1.715c-0.254-0.114-1.091-0.379-2.052-0.379
			C84.575,64.173,83.278,64.714,83.278,66.252 M93.989,62.578c-0.182,1.382-0.416,1.746-1.454,1.886v0.629h1.038
			c0.11,0,0.11,0.057,0.11,0.14v4.65c0,1.117,0.587,1.731,1.801,1.731c0.672,0,1.272-0.178,1.801-0.39l-0.265-0.727
			c-0.405,0.155-0.88,0.284-1.339,0.284c-0.812,0-1.062-0.352-1.062-1.246v-4.442h2.19v-0.78h-2.077
			c-0.114,0-0.114-0.057-0.114-0.14v-1.594H93.989z M47.994,61.337v0.617l0.88,0.095c0.195,0.011,0.225,0.072,0.225,0.28v5.794
			c0,2.015-0.907,2.666-2.615,2.666c-1.659,0-2.624-0.697-2.624-2.692v-5.767c0-0.208,0.013-0.235,0.225-0.269l0.935-0.106v-0.617
			h-3.198v0.617l0.878,0.095c0.197,0.011,0.224,0.072,0.224,0.28v5.824c0,2.234,0.962,3.461,3.476,3.461
			c2.363,0,3.632-1.128,3.632-3.45v-5.835c0-0.208,0.015-0.235,0.221-0.269l0.937-0.106v-0.617H47.994z M60.916,61.84
			c0,0.473,0.28,0.738,0.755,0.738c0.475,0,0.752-0.265,0.752-0.738c0-0.477-0.276-0.742-0.752-0.742
			C61.197,61.098,60.916,61.363,60.916,61.84 M89.578,61.84c0,0.473,0.276,0.738,0.752,0.738c0.475,0,0.753-0.265,0.753-0.738
			c0-0.477-0.278-0.742-0.753-0.742C89.854,61.098,89.578,61.363,89.578,61.84 M54.002,51.548h-0.087l-0.172-1.151h-2.528
			l-0.159,1.166l0.776,0.273c0.144,0.042,0.186,0.14,0.186,0.299v4.207c0,0.216-0.028,0.261-0.231,0.288l-0.644,0.087v1.162h4.696
			v-1.151l-1.42-0.113c-0.216-0.011-0.231-0.057-0.231-0.284v-3.81c0.212-0.186,0.661-0.503,1.034-0.503
			c0.113,0,0.157,0.03,0.186,0.159l0.144,0.761l1.727,0.057v-2.613c-0.261-0.072-0.924-0.125-1.251-0.125
			C55.104,50.257,54.475,50.813,54.002,51.548 M59.962,55.71c0-0.576,0.303-0.788,1.147-0.845l0.977-0.076v1.197
			c-0.33,0.242-0.814,0.515-1.307,0.515C60.307,56.501,59.962,56.285,59.962,55.71 M58.05,52.464l2.026,0.17
			c0-0.859,0.36-0.958,1.051-0.958c0.89,0,0.96,0.458,0.96,1.132V53.6l-1.651,0.114c-1.795,0.117-2.685,0.772-2.685,2.211
			c0,0.89,0.288,2.128,2.098,2.128c1.147,0,1.867-0.432,2.412-0.966l0.072,0.015l0.144,0.776h2.643v-1.136L64.43,56.63
			c-0.216-0.027-0.231-0.057-0.231-0.288v-3.487c0-2.015-0.875-2.598-3.06-2.598C59.818,50.257,58.05,50.529,58.05,52.464
			 M68.497,51.173l-0.059-0.03l-0.114-0.746h-2.516l-0.17,1.166l0.776,0.273c0.14,0.042,0.186,0.14,0.186,0.299v4.222
			c0,0.216-0.03,0.258-0.227,0.288l-0.648,0.083v1.151h3.963v-1.136l-0.689-0.098c-0.216-0.03-0.229-0.061-0.229-0.288V52.51
			c0.299-0.231,0.96-0.534,1.492-0.534c0.718,0,0.761,0.576,0.761,1.265v4.639h3.117v-1.136l-0.716-0.098
			c-0.22-0.03-0.231-0.061-0.231-0.288v-3.665c0-1.579-0.606-2.435-2.17-2.435C70.046,50.257,69.213,50.643,68.497,51.173
			 M87.673,51.805c0.591,0,1.06,0.314,1.079,1.522h-2.283C86.556,52.15,87.054,51.805,87.673,51.805 M84.153,54.089
			c0,2.242,0.952,3.965,3.722,3.965c1.077,0,2.054-0.303,2.942-0.735l-0.53-1.424c-0.979,0.364-1.581,0.488-2.139,0.488
			c-1.178,0-1.623-0.674-1.695-1.693h4.396c0.011-0.288,0.027-0.788,0.027-0.962c0-2.484-1.265-3.472-3.158-3.472
			C85.751,50.257,84.153,51.487,84.153,54.089 M41.417,52.635c0,3.336,1.464,5.419,5.038,5.419c1.308,0,2.745-0.273,3.594-0.791
			v-2.67h-1.537l-0.212,1.333c-0.045,0.216-0.091,0.257-0.263,0.303c-0.371,0.114-0.96,0.186-1.437,0.186
			c-1.78,0-2.885-1.234-2.885-3.779c0-2.439,1.161-3.673,2.988-3.673c0.473,0,0.964,0.072,1.276,0.174
			c0.148,0.042,0.205,0.114,0.231,0.254l0.231,1.409l1.579,0.132v-2.817c-0.79-0.519-2.064-0.818-3.26-0.818
			C43.183,47.295,41.417,49.579,41.417,52.635 M91.81,47.034l-0.155,1.163l0.79,0.273c0.144,0.045,0.186,0.148,0.186,0.303v7.585
			c0,0.216-0.028,0.258-0.227,0.288l-0.719,0.098v1.136h4.048v-1.136l-0.7-0.098c-0.218-0.03-0.231-0.061-0.231-0.288v-9.323H91.81z
			 M98.692,54.187c0-1.28,0.417-2.268,1.481-2.268c0.416,0,0.877,0.189,1.232,0.432v3.389c-0.384,0.329-0.918,0.617-1.407,0.617
			C99.094,56.357,98.692,55.581,98.692,54.187 M100.676,47.034l-0.159,1.163l0.788,0.273c0.132,0.045,0.189,0.148,0.189,0.292v2.181
			c-0.549-0.402-1.193-0.685-2.026-0.685c-1.594,0-3.044,1.087-3.044,3.976c0,2.742,1.091,3.821,2.783,3.821
			c1.051,0,1.753-0.405,2.355-0.992l0.104,0.011l0.142,0.807h2.674v-1.136l-0.691-0.098c-0.214-0.03-0.229-0.061-0.229-0.273v-9.338
			H100.676z M75.809,49.681v0.716H74.73v1.439h0.966c0.114,0,0.114,0.057,0.114,0.14V56.3c0,0.273-0.015,0.314-0.257,0.345
			l-0.776,0.098v1.136h4.464v-1.136l-1.007-0.14c-0.212-0.03-0.256-0.045-0.256-0.303v-4.464h2.281c0.118,0,0.144,0.057,0.144,0.17
			v5.873h3.132v-1.136l-0.731-0.098c-0.216-0.03-0.231-0.061-0.231-0.288v-5.96h-4.438c-0.142,0-0.157-0.026-0.157-0.14v-0.879
			c0-0.818,0.327-1.106,1.293-1.106c0.92,0,1.119,0.212,1.119,1.106l2.039-0.242c-0.027-1.969-1.265-2.272-3.045-2.272
			C77.044,46.864,75.809,47.553,75.809,49.681 M40.642,14.863c-5.794,2.45-11.013,5.998-15.395,10.383
			c-4.383,4.381-7.931,9.603-10.385,15.397c-2.45,5.797-3.805,12.167-3.805,18.854c0,6.691,1.356,13.064,3.805,18.858
			c2.454,5.798,6.002,11.016,10.385,15.4c4.381,4.381,9.601,7.929,15.395,10.379c5.796,2.45,12.17,3.806,18.858,3.806
			s13.06-1.356,18.856-3.806c5.797-2.45,11.013-5.998,15.399-10.379l-13.7-13.704c-2.628,2.628-5.763,4.76-9.239,6.229
			c-3.48,1.469-7.301,2.283-11.315,2.283s-7.835-0.814-11.315-2.283c-3.476-1.469-6.608-3.601-9.236-6.229
			c-2.632-2.632-4.76-5.763-6.229-9.243c-1.473-3.472-2.287-7.297-2.287-11.311c0-4.014,0.814-7.835,2.287-11.311
			c1.469-3.48,3.597-6.608,6.229-9.239c2.628-2.632,5.76-4.76,9.236-6.229c3.48-1.469,7.301-2.287,11.315-2.287
			s7.835,0.818,11.315,2.287c3.476,1.469,6.612,3.597,9.239,6.229l13.7-13.7c-4.385-4.385-9.601-7.933-15.399-10.383
			c-5.796-2.454-12.169-3.806-18.856-3.806S46.438,12.409,40.642,14.863 M2.738,59.496c0-31.297,25.46-56.762,56.762-56.762
			c31.301,0,56.766,25.465,56.766,56.762c0,31.301-25.465,56.77-56.766,56.77C28.198,116.266,2.738,90.797,2.738,59.496 M0,59.496
			c0,32.811,26.692,59.5,59.5,59.5s59.5-26.688,59.5-59.5C119,26.692,92.308,0,59.5,0S0,26.692,0,59.496"/>
	</defs>
	<clipPath id="SVGID_2_">
		<use xlink:href="#SVGID_1_"  style="overflow:visible;"/>
	</clipPath>
	
		<linearGradient id="SVGID_3_" gradientUnits="userSpaceOnUse" x1="-360.1461" y1="356.1779" x2="-357.368" y2="356.1779" gradientTransform="matrix(42.8347 42.8347 42.8347 -42.8347 169.9788 30683.5234)">
		<stop  offset="0" style="stop-color:#13416D"/>
		<stop  offset="0.25" style="stop-color:#13416D"/>
		<stop  offset="1" style="stop-color:#0B1A32"/>
	</linearGradient>
	<polygon class="st0" points="59.5,-59.5 178.496,59.5 59.5,178.496 -59.498,59.5 	"/>
</g>
</svg>
