<?xml version="1.0" encoding="UTF-8"?>
<svg id="e" data-name="Text" xmlns="http://www.w3.org/2000/svg" viewBox="0 0 523.79311 625.29297">
  <defs>
    <style>
      .h {
        fill: #9da8b1;
      }

      .i {
        stroke-width: 27.61071px;
      }

      .i, .j {
        stroke: #f6c310;
      }

      .i, .j, .k {
        fill: none;
        stroke-linecap: round;
        stroke-miterlimit: 10;
      }

      .l {
        fill: #717d91;
      }

      .m {
        fill: #38a3b6;
      }

      .n {
        fill: #666;
      }

      .j {
        stroke-width: 36.08189px;
      }

      .k {
        stroke: #9da8b1;
        stroke-width: 9px;
      }

      .o {
        fill: #ccc;
      }

      .p {
        fill: #b3b3b3;
      }

      .q {
        fill: #e6e6e6;
      }
    </style>
  </defs>
  <circle class="m" cx="257.63148" cy="383.51242" r="206"/>
  <g id="f" data-name="Generative Object">
    <g>
      <path class="o" d="M252.30665,387.07534c-8.37689,8.04802-2.33707,19.92441,8.37113,21.26269,11.17917,1.39714,20.19939-11.29403,12.22183-20.25814-.20895-.23479-.44355-.44737-.66968-.66968.22613.22231.46073.43489.66968.66968,4.76049-7.38857,21.62502-7.08864,26.28537-1.00455-14.02569,13.50946,11.48348,30.93496,21.5975,15.06803.15517-.24342.18885-.56857.33487-.83711l6.52947,2.09278-3.34845,141.05353c-24.10016,2.71196-103.03231,3.22073-126.40406,0,2.03981-5.07901-2.80539-8.06871-3.34845-11.30102-2.40847-14.33516-3.03916-120.55479-.83711-134.77519.65794-4.24883,4.31227-2.75509,7.70145-2.9299-.95253,23.75252,42.18559,9.63706,23.27173-8.37113,3.27965.0039,3.38847-3.73711,5.44123-4.18556,2.3126-.50522,21.7546-.01497,22.18349,4.18556Z"/>
      <path class="q" d="M205.85866,259.34531c6.23213-.15263,12.51614.20574,18.76479.1065,22.61781-.3592,45.34227-.63558,67.96119-.45476,11.04755.08832,22.25235-.47986,33.27524,0,1.13329.04934,2.28138-.06334,3.41288,0-2.24131,7.96565,7.1105,7.97025,8.83797,14.23092h-147.33188c-4.6372,1.5286-9.52852,5.62178-10.46391,10.46391-1.41098,7.30407-1.42896,79.03185,0,86.22263.32223,1.62152,14.31228,19.23847,15.48659,19.67215,1.55669.5749,5.67408-.45315,7.61773,0-1.02323,1.48058-1.93653,4.05099-2.00907,5.85979-3.38918.1748-7.04351-1.31893-7.70145,2.9299-2.20204,14.2204-1.57136,120.44002.83711,134.77519.54307,3.23231,5.38826,6.22201,3.34845,11.30102-9.92986-1.36838-15.39848-3.60221-17.57937-14.23092-7.07837-34.49685,7.32877-98.30631,0-132.26385-2.63495-12.20895-12.42218-13.2814-16.23999-23.43916-1.96499-5.22809-1.42419-95.6179.66968-100.45355,6.36245-14.69367,15.02309-14.23772,28.26393-14.95724,4.24279-.23056,8.59161.34175,12.8501.23746Z"/>
      <path class="l" d="M224.62345,259.45181c-6.24864.09924-12.53266-.25913-18.76479-.1065l2.08101-146.00591c5.90879-.31,11.42919,2.7813,14.73319,7.53402,7.73335,11.12423-.52592,114.42623,1.9067,134.77309l.04389,3.8053Z"/>
      <path class="o" d="M327.64682,403.39904l-6.52947-2.09278c-.14602.26854-.1797.59369-.33487.83711.15517-.24342.18885-.56857.33487-.83711,1.24759-2.29447,1.79101-4.93027,1.17193-7.53402l21.43012,2.51134"/>
      <path class="h" d="M207.93966,113.3394l-2.08101,146.00591c-4.25849.10429-8.60731-.46801-12.8501-.23746l.03393-3.46507c3.29979-36.84264-6.34197-89.71009-1.00797-124.72401,1.44381-9.47759,5.26213-17.02099,15.90515-17.57937Z"/>
      <path class="h" d="M325.85988,258.99706c-11.02289-.47986-22.22769.08832-33.27524,0l.44451-3.36156c3.33461-8.81231-4.4747-20.52184,7.83005-23.42606,1.47546-.34824,16.91232-.34562,18.41648,0,11.05377,2.5399,5.31148,15.26745,6.6969,23.43916l-.11271,3.34845Z"/>
      <g>
        <path class="o" d="M357.95031,271.55375c2.34018,4.16088,4.17825,85.49768,3.18102,94.59376-2.11393,19.2818-13.80094,17.47353-17.41194,30.13607l-21.43012-2.51134c-1.74039-7.31973-10.42129-12.12942-17.24451-10.04536-1.66472.50847-4.57892,2.11472-5.85979,3.34845-4.66035-6.08409-21.52487-6.38403-26.28537,1.00455-.20895-.23479-.44355-.44737-.66968-.66968-3.00443-2.9536-10.12014-4.91643-14.06349-3.68332-1.69058.52866-4.55905,2.09878-5.85979,3.34845-.4289-4.20053-19.87089-4.69078-22.18349-4.18556-2.05276.44845-2.16158,4.18947-5.44123,4.18556-2.79437-2.66057-9.80908-4.44541-13.39381-3.34845-3.21342.98334-5.9257,3.0481-7.86886,5.85979-1.94365-.45315-6.06104.5749-7.61773,0-1.17431-.43368-15.16436-18.05064-15.48659-19.67215-1.42896-7.19078-1.41098-78.91856,0-86.22263.93539-4.84213,5.82671-8.93531,10.46391-10.46391h147.33188"/>
        <path class="q" d="M338.11073,273.22798c-1.72747-6.26067-11.07928-6.26527-8.83797-14.23092.85399.0478,1.72762-.06207,2.55962,0,11.93547.89044,19.07885.04104,26.11793,12.55669"/>
        <path class="n" d="M195.93966,358.78093l-.83711-72.49399c32.02407-2.07232,134.97591-3.51016,136.72983,2.5204.87667,3.01428.84877,63.76122,0,66.78347-2.03773,7.25582-104.69834,5.08901-135.89272,3.19011Z"/>
      </g>
      <path class="h" d="M272.22993,387.4102c.22613.22231.46073.43489.66968.66968,7.97756,8.96411-1.04266,21.65528-12.22183,20.25814-10.7082-1.33828-16.74802-13.21467-8.37113-21.26269,1.30074-1.24967,4.16921-2.8198,5.85979-3.34845,3.94335-1.23311,11.05906.72972,14.06349,3.68332Z"/>
      <path class="h" d="M322.28927,393.77224c.61909,2.60375.07566,5.23955-1.17193,7.53402-.14602.26854-.1797.59369-.33487.83711-10.11402,15.86693-35.6232-1.55857-21.5975-15.06803,1.28087-1.23373,4.19507-2.83999,5.85979-3.34845,6.82322-2.08406,15.50411,2.72563,17.24451,10.04536Z"/>
      <path class="h" d="M224.68192,387.07534c18.91386,18.00819-24.22426,32.12365-23.27173,8.37113.07254-1.8088.98584-4.37922,2.00907-5.85979,1.94316-2.81169,4.65544-4.87645,7.86886-5.85979,3.58473-1.09696,10.59944.68789,13.39381,3.34845Z"/>
      <path class="p" d="M343.71939,396.28358c-5.64615,37.84586,6.93651,97.80837-.16743,133.10096-2.60641,12.94872-8.06815,13.80935-19.2536,15.06803l3.34845-141.05353s-2.23874-16.17385,2.86764-19.88662,14.04255-9.32979,15.31915-14.69149-1.67524-82.21277-2.11421-89.10638-5.60867-6.48657-5.60867-6.48657l8.24256-12.43463s11.67332,3.58396,12.75692,11.00631,3.31086,94.36788,3.31086,94.36788c0,0-3.00542,11.87853-9.2477,17.34489-6.5922,5.77279-8.86264,8.10765-9.45398,12.77116s-16.07258,7.11546-16.07258,7.11546"/>
    </g>
    <g>
      <line class="k" x1="213.79841" y1="514.81543" x2="311.74228" y2="514.51771"/>
      <line class="k" x1="315.09012" y1="432.27944" x2="208.77688" y2="431.41509"/>
      <line class="k" x1="313.4159" y1="460.74128" x2="209.61435" y2="459.01126"/>
      <line class="k" x1="212.96362" y1="487.18468" x2="310.90517" y2="486.92941"/>
    </g>
  </g>
  <g>
    <line class="i" x1="474.92066" y1="204.2004" x2="441.70379" y2="237.41727"/>
    <line class="i" x1="472.15959" y1="240.17834" x2="438.94272" y2="273.39521"/>
  </g>
  <g>
    <line class="i" x1="83.53712" y1="212.26104" x2="50.32024" y2="245.47791"/>
    <line class="i" x1="80.77604" y1="248.23898" x2="47.55917" y2="281.45585"/>
  </g>
  <g>
    <line class="j" x1="323.5545" y1="30.24707" x2="280.14644" y2="73.65514"/>
    <line class="j" x1="319.94631" y1="77.26332" x2="276.53825" y2="120.67139"/>
  </g>
</svg>
