<?xml version="1.0" encoding="UTF-8"?>
<svg id="Interface" xmlns="http://www.w3.org/2000/svg" xmlns:xlink="http://www.w3.org/1999/xlink" viewBox="0 0 684.48 526.74">
  <defs>
    <style>
      .cls-1 {
        fill: #d1356f;
      }

      .cls-2, .cls-3, .cls-4 {
        fill: none;
      }

      .cls-5 {
        fill: #bdccd4;
      }

      .cls-6 {
        fill: #116361;
      }

      .cls-6, .cls-7, .cls-8, .cls-9, .cls-10, .cls-11 {
        fill-rule: evenodd;
      }

      .cls-7 {
        fill: #fbcb43;
      }

      .cls-12 {
        clip-path: url(#clippath-1);
      }

      .cls-13 {
        fill: #f2f2f2;
      }

      .cls-8 {
        fill: #61ba71;
      }

      .cls-9 {
        fill: #7ac28b;
      }

      .cls-10 {
        fill: #fbbe44;
      }

      .cls-14 {
        clip-path: url(#clippath-2);
      }

      .cls-3 {
        stroke: #d1356f;
        stroke-width: 2.46px;
      }

      .cls-3, .cls-4 {
        stroke-miterlimit: 10;
      }

      .cls-15 {
        fill: #9bb1ba;
      }

      .cls-4 {
        stroke: #000;
        stroke-width: 1.82px;
      }

      .cls-16 {
        clip-path: url(#clippath);
      }

      .cls-11 {
        fill: #0c5453;
      }
    </style>
    <clipPath id="clippath">
      <rect class="cls-2" x="372.17" y="425.43" width="131.31" height="81.61"/>
    </clipPath>
    <clipPath id="clippath-1">
      <rect class="cls-2" x="428.56" y="425.43" width="74.93" height="81.61"/>
    </clipPath>
    <clipPath id="clippath-2">
      <rect class="cls-2" x="429.24" y="425.43" width="74.24" height="81.61"/>
    </clipPath>
  </defs>
  <g>
    <polygon class="cls-5" points="328.61 478.76 490.14 87.87 651.67 478.76 328.61 478.76"/>
    <path class="cls-13" d="M426.25,239.57s20.95-26.21,26.04,0c5.09,26.21-7.65,79.06,18.2,75.36,22.94-3.28,3.28-81.92,19.66-75.36,16.38,6.55,5.37,43.47,20.71,33.2,15.34-10.27,8.37-46.31,18.41-33.2s-11.57,25.24,9.06,43.75c20.63,18.51,20.56-30.15,17.32-36.95-3.24-6.8-65.5-158.5-65.5-158.5l-62.69,151.7"/>
    <g>
      <line class="cls-13" x1="572.46" y1="287.08" x2="651.67" y2="478.76"/>
      <path class="cls-15" d="M572.91,286.89c13.81,29.78,29.51,64.43,42.78,94.53,3.49,7.91,7.16,15.74,10.76,23.6,7.21,15.74,13.15,31.99,18.52,48.45,2.64,8.26,5.15,16.57,7.15,25.1,0,0-.91.38-.91.38-13.37-22.35-24.52-45.89-33.75-70.21-5.09-14.1-12.85-34.34-18.33-48.53-6.63-17.47-16.23-43.29-22.69-60.75,0,0-4.44-12.19-4.44-12.19,0,0,.91-.38.91-.38h0Z"/>
    </g>
  </g>
  <g>
    <line class="cls-4" x1="356.45" y1="347.75" x2="255.08" y2="347.75"/>
    <path d="M356.1,340.89c3.79,0,6.86,3.07,6.86,6.86s-3.07,6.86-6.86,6.86-6.86-3.07-6.86-6.86,3.07-6.86,6.86-6.86Z"/>
  </g>
  <g>
    <path d="M66.88,357.4v-28.63h10.74c2.19,0,3.94.29,5.26.87s2.36,1.47,3.11,2.68,1.12,2.46,1.12,3.78c0,1.22-.33,2.38-1,3.46s-1.67,1.95-3.01,2.62c1.73.51,3.06,1.37,3.99,2.6s1.4,2.67,1.4,4.34c0,1.34-.28,2.59-.85,3.74s-1.27,2.04-2.1,2.67-1.88,1.1-3.13,1.42-2.8.48-4.62.48h-10.92ZM70.66,340.8h6.19c1.68,0,2.88-.11,3.61-.33.96-.29,1.69-.76,2.18-1.43s.73-1.5.73-2.5c0-.95-.23-1.79-.68-2.51s-1.11-1.22-1.95-1.48-2.3-.4-4.36-.4h-5.72v8.65ZM70.66,354.02h7.13c1.22,0,2.08-.05,2.58-.14.87-.16,1.6-.42,2.19-.78s1.07-.9,1.45-1.59.57-1.5.57-2.41c0-1.07-.27-2-.82-2.78s-1.31-1.34-2.28-1.66-2.37-.48-4.19-.48h-6.62v9.84Z"/>
    <path d="M91.95,347.03c0-3.84,1.07-6.69,3.2-8.54,1.78-1.54,3.96-2.3,6.52-2.3,2.85,0,5.18.93,6.99,2.8s2.71,4.45,2.71,7.74c0,2.67-.4,4.77-1.2,6.3s-1.97,2.72-3.5,3.56-3.2,1.27-5.01,1.27c-2.9,0-5.25-.93-7.04-2.79s-2.69-4.54-2.69-8.05ZM95.57,347.03c0,2.66.58,4.65,1.74,5.97s2.62,1.98,4.38,1.98,3.2-.66,4.36-1.99,1.74-3.35,1.74-6.07c0-2.57-.58-4.51-1.75-5.83s-2.61-1.98-4.35-1.98-3.22.66-4.38,1.97-1.74,3.3-1.74,5.96Z"/>
    <path d="M123.18,354.26l.51,3.11c-.99.21-1.88.31-2.66.31-1.28,0-2.27-.2-2.97-.61s-1.2-.93-1.48-1.59-.43-2.04-.43-4.15v-11.93h-2.58v-2.73h2.58v-5.14l3.5-2.11v7.25h3.54v2.73h-3.54v12.13c0,1,.06,1.65.19,1.93s.33.51.61.68.68.25,1.2.25c.39,0,.91-.05,1.54-.14Z"/>
    <path d="M134.3,354.26l.51,3.11c-.99.21-1.88.31-2.66.31-1.28,0-2.27-.2-2.97-.61s-1.2-.93-1.48-1.59-.43-2.04-.43-4.15v-11.93h-2.58v-2.73h2.58v-5.14l3.5-2.11v7.25h3.54v2.73h-3.54v12.13c0,1,.06,1.65.19,1.93s.33.51.61.68.68.25,1.2.25c.39,0,.91-.05,1.54-.14Z"/>
    <path d="M137.66,357.4v-28.63h3.52v28.63h-3.52Z"/>
    <path d="M160.82,350.72l3.63.45c-.57,2.12-1.63,3.77-3.18,4.94s-3.53,1.76-5.94,1.76c-3.03,0-5.44-.93-7.22-2.8s-2.67-4.49-2.67-7.86.9-6.2,2.7-8.12,4.13-2.89,6.99-2.89,5.04.94,6.8,2.83,2.64,4.54,2.64,7.97c0,.21,0,.52-.02.94h-15.47c.13,2.28.77,4.02,1.93,5.23s2.6,1.82,4.34,1.82c1.29,0,2.39-.34,3.3-1.02s1.63-1.76,2.17-3.24ZM149.28,345.04h11.58c-.16-1.75-.6-3.05-1.33-3.93-1.12-1.35-2.57-2.03-4.36-2.03-1.61,0-2.97.54-4.07,1.62s-1.71,2.53-1.83,4.34Z"/>
    <path d="M168.87,357.4v-20.74h3.16v2.95c1.52-2.28,3.72-3.42,6.6-3.42,1.25,0,2.4.22,3.45.67s1.83,1.04,2.35,1.77.89,1.59,1.09,2.6c.13.65.2,1.79.2,3.42v12.75h-3.52v-12.62c0-1.43-.14-2.5-.41-3.21s-.76-1.28-1.46-1.7-1.51-.63-2.45-.63c-1.5,0-2.79.48-3.88,1.43s-1.63,2.75-1.63,5.41v11.33h-3.52Z"/>
    <path d="M205.31,350.72l3.63.45c-.57,2.12-1.63,3.77-3.18,4.94s-3.53,1.76-5.94,1.76c-3.03,0-5.44-.93-7.22-2.8s-2.67-4.49-2.67-7.86.9-6.2,2.7-8.12,4.13-2.89,6.99-2.89,5.04.94,6.8,2.83,2.64,4.54,2.64,7.97c0,.21,0,.52-.02.94h-15.47c.13,2.28.77,4.02,1.93,5.23s2.6,1.82,4.34,1.82c1.29,0,2.39-.34,3.3-1.02s1.63-1.76,2.17-3.24ZM193.77,345.04h11.58c-.16-1.75-.6-3.05-1.33-3.93-1.12-1.35-2.57-2.03-4.36-2.03-1.61,0-2.97.54-4.07,1.62s-1.71,2.53-1.83,4.34Z"/>
    <path d="M226.89,349.8l3.46.45c-.38,2.38-1.34,4.25-2.9,5.6s-3.47,2.02-5.73,2.02c-2.84,0-5.12-.93-6.85-2.78s-2.59-4.51-2.59-7.98c0-2.24.37-4.2,1.11-5.88s1.87-2.94,3.39-3.78,3.17-1.26,4.95-1.26c2.25,0,4.09.57,5.53,1.71s2.35,2.76,2.75,4.85l-3.42.53c-.33-1.39-.9-2.44-1.73-3.14s-1.83-1.05-3-1.05c-1.77,0-3.21.63-4.32,1.9s-1.66,3.28-1.66,6.03.53,4.81,1.6,6.07,2.46,1.89,4.18,1.89c1.38,0,2.53-.42,3.46-1.27s1.51-2.15,1.76-3.91Z"/>
    <path d="M233.38,357.4v-28.63h3.52v16.33l8.32-8.44h4.55l-7.93,7.7,8.73,13.05h-4.34l-6.86-10.61-2.48,2.38v8.22h-3.52Z"/>
  </g>
  <g>
    <line class="cls-4" x1="307.77" y1="472.31" x2="206.41" y2="472.31"/>
    <circle cx="307.43" cy="472.31" r="6.86"/>
  </g>
  <g>
    <path d="M65.39,470.67l3.79.96c-.79,3.11-2.22,5.49-4.29,7.12s-4.59,2.45-7.57,2.45-5.6-.63-7.53-1.88-3.41-3.08-4.41-5.46-1.51-4.94-1.51-7.68c0-2.98.57-5.58,1.71-7.8s2.76-3.91,4.86-5.06,4.42-1.73,6.94-1.73c2.86,0,5.27.73,7.23,2.19s3.31,3.51,4.08,6.15l-3.73.88c-.66-2.08-1.63-3.6-2.89-4.55s-2.85-1.43-4.77-1.43c-2.2,0-4.04.53-5.52,1.58s-2.52,2.47-3.12,4.25-.9,3.61-.9,5.5c0,2.43.35,4.56,1.06,6.38s1.81,3.17,3.31,4.07,3.12,1.35,4.86,1.35c2.12,0,3.92-.61,5.39-1.84s2.47-3.04,2.99-5.45Z"/>
    <path d="M86.94,478.15c-1.3,1.11-2.56,1.89-3.76,2.34s-2.5.68-3.88.68c-2.28,0-4.03-.56-5.25-1.67s-1.84-2.54-1.84-4.27c0-1.02.23-1.94.69-2.78s1.07-1.51,1.82-2.02,1.59-.89,2.53-1.15c.69-.18,1.73-.36,3.12-.53,2.84-.34,4.93-.74,6.27-1.21.01-.48.02-.79.02-.92,0-1.43-.33-2.44-1-3.03-.9-.79-2.23-1.19-4-1.19-1.65,0-2.87.29-3.66.87s-1.37,1.6-1.75,3.08l-3.44-.47c.31-1.47.83-2.66,1.54-3.56s1.75-1.6,3.11-2.09,2.92-.73,4.71-.73,3.21.21,4.32.62,1.92.94,2.44,1.57.89,1.43,1.09,2.39c.12.6.18,1.68.18,3.24v4.69c0,3.27.08,5.33.22,6.2s.45,1.7.89,2.49h-3.67c-.36-.73-.6-1.58-.7-2.56ZM86.64,470.3c-1.28.52-3.19.96-5.74,1.33-1.45.21-2.47.44-3.07.7s-1.06.64-1.39,1.14-.49,1.06-.49,1.67c0,.94.35,1.72,1.06,2.34s1.75.94,3.12.94,2.56-.3,3.61-.89,1.83-1.4,2.32-2.43c.38-.79.57-1.97.57-3.52v-1.29Z"/>
    <path d="M95.65,480.71v-20.74h3.14v2.91c.65-1.02,1.52-1.83,2.6-2.45s2.31-.93,3.69-.93c1.54,0,2.8.32,3.78.96s1.68,1.53,2.08,2.68c1.64-2.42,3.78-3.63,6.41-3.63,2.06,0,3.64.57,4.75,1.71s1.66,2.89,1.66,5.26v14.24h-3.5v-13.07c0-1.41-.11-2.42-.34-3.04s-.64-1.12-1.24-1.49-1.3-.57-2.11-.57c-1.46,0-2.67.49-3.63,1.46s-1.45,2.52-1.45,4.66v12.05h-3.52v-13.48c0-1.56-.29-2.73-.86-3.52s-1.51-1.17-2.81-1.17c-.99,0-1.9.26-2.74.78s-1.45,1.28-1.83,2.29-.57,2.45-.57,4.34v10.76h-3.52Z"/>
    <path d="M128.97,488.66v-28.69h3.2v2.7c.75-1.05,1.61-1.85,2.56-2.37s2.1-.79,3.46-.79c1.77,0,3.33.46,4.69,1.37s2.38,2.2,3.07,3.86,1.04,3.48,1.04,5.46c0,2.12-.38,4.03-1.14,5.73s-1.87,3-3.32,3.91-2.98,1.36-4.58,1.36c-1.17,0-2.22-.25-3.15-.74s-1.7-1.12-2.29-1.88v10.1h-3.52ZM132.15,470.45c0,2.67.54,4.64,1.62,5.92s2.39,1.91,3.93,1.91,2.9-.66,4.01-1.98,1.67-3.37,1.67-6.14-.54-4.62-1.63-5.94-2.39-1.97-3.9-1.97-2.82.7-3.97,2.1-1.73,3.43-1.73,6.1Z"/>
    <path d="M172.62,480.71v-6.86h-12.42v-3.22l13.07-18.55h2.87v18.55h3.87v3.22h-3.87v6.86h-3.52ZM172.62,470.63v-12.91l-8.96,12.91h8.96Z"/>
  </g>
  <g>
    <line class="cls-4" x1="413.5" y1="223.18" x2="312.13" y2="223.18"/>
    <path d="M413.15,216.32c3.79,0,6.86,3.07,6.86,6.86s-3.07,6.86-6.86,6.86-6.86-3.07-6.86-6.86,3.07-6.86,6.86-6.86Z"/>
  </g>
  <g>
    <path d="M163.43,232.28v-25.25h-9.43v-3.38h22.7v3.38h-9.47v25.25h-3.79Z"/>
    <path d="M178.6,232.28v-20.74h3.16v3.14c.81-1.47,1.55-2.44,2.24-2.91s1.44-.7,2.26-.7c1.18,0,2.39.38,3.61,1.13l-1.21,3.26c-.86-.51-1.72-.76-2.58-.76-.77,0-1.46.23-2.07.69s-1.05,1.1-1.31,1.92c-.39,1.25-.59,2.62-.59,4.1v10.86h-3.52Z"/>
    <path d="M205.5,229.72c-1.3,1.11-2.56,1.89-3.76,2.34s-2.5.68-3.88.68c-2.28,0-4.03-.56-5.25-1.67s-1.84-2.54-1.84-4.27c0-1.02.23-1.94.69-2.78s1.07-1.51,1.82-2.02,1.59-.89,2.53-1.15c.69-.18,1.73-.36,3.12-.53,2.84-.34,4.93-.74,6.27-1.21.01-.48.02-.79.02-.92,0-1.43-.33-2.44-1-3.03-.9-.79-2.23-1.19-4-1.19-1.65,0-2.87.29-3.66.87s-1.37,1.6-1.75,3.08l-3.44-.47c.31-1.47.83-2.66,1.54-3.56s1.75-1.6,3.11-2.09,2.92-.73,4.71-.73,3.21.21,4.32.62,1.92.94,2.44,1.57.89,1.43,1.09,2.39c.12.6.18,1.68.18,3.24v4.69c0,3.27.08,5.33.22,6.2s.45,1.7.89,2.49h-3.67c-.36-.73-.6-1.58-.7-2.56ZM205.21,221.87c-1.28.52-3.19.96-5.74,1.33-1.45.21-2.47.44-3.07.7s-1.06.64-1.39,1.14-.49,1.06-.49,1.67c0,.94.35,1.72,1.06,2.34s1.75.94,3.12.94,2.56-.3,3.61-.89,1.83-1.4,2.32-2.43c.38-.79.57-1.97.57-3.52v-1.29Z"/>
    <path d="M219.97,232.28l-7.89-20.74h3.71l4.45,12.42c.48,1.34.92,2.73,1.33,4.18.31-1.09.75-2.41,1.31-3.95l4.61-12.66h3.61l-7.85,20.74h-3.28Z"/>
    <path d="M248.41,225.6l3.63.45c-.57,2.12-1.63,3.77-3.18,4.94s-3.53,1.76-5.94,1.76c-3.03,0-5.44-.93-7.22-2.8s-2.67-4.49-2.67-7.86.9-6.2,2.7-8.12,4.13-2.89,6.99-2.89,5.04.94,6.8,2.83,2.64,4.54,2.64,7.97c0,.21,0,.52-.02.94h-15.47c.13,2.28.77,4.02,1.93,5.23s2.6,1.82,4.34,1.82c1.29,0,2.39-.34,3.3-1.02s1.63-1.76,2.17-3.24ZM236.87,219.91h11.58c-.16-1.75-.6-3.05-1.33-3.93-1.12-1.35-2.57-2.03-4.36-2.03-1.61,0-2.97.54-4.07,1.62s-1.71,2.53-1.83,4.34Z"/>
    <path d="M256.42,232.28v-20.74h3.16v3.14c.81-1.47,1.55-2.44,2.24-2.91s1.44-.7,2.26-.7c1.18,0,2.39.38,3.61,1.13l-1.21,3.26c-.86-.51-1.72-.76-2.58-.76-.77,0-1.46.23-2.07.69s-1.05,1.1-1.31,1.92c-.39,1.25-.59,2.62-.59,4.1v10.86h-3.52Z"/>
    <path d="M268.37,226.09l3.48-.55c.2,1.39.74,2.46,1.63,3.2s2.14,1.11,3.74,1.11,2.81-.33,3.59-.99,1.17-1.43,1.17-2.31c0-.79-.34-1.42-1.04-1.88-.48-.31-1.68-.71-3.59-1.19-2.58-.65-4.37-1.21-5.36-1.69s-1.75-1.13-2.27-1.97-.77-1.77-.77-2.78c0-.92.21-1.78.63-2.57s1-1.44,1.73-1.96c.55-.4,1.29-.75,2.24-1.03s1.96-.42,3.04-.42c1.63,0,3.06.23,4.29.7s2.14,1.1,2.72,1.9.99,1.87,1.21,3.21l-3.44.47c-.16-1.07-.61-1.9-1.36-2.5s-1.81-.9-3.17-.9c-1.61,0-2.77.27-3.46.8s-1.04,1.16-1.04,1.88c0,.46.14.87.43,1.23.29.38.74.69,1.35.94.35.13,1.39.43,3.11.9,2.49.66,4.22,1.21,5.21,1.63s1.75,1.04,2.31,1.85.84,1.81.84,3.01-.34,2.28-1.03,3.31-1.67,1.84-2.96,2.4-2.75.85-4.38.85c-2.7,0-4.75-.56-6.16-1.68s-2.31-2.78-2.71-4.98Z"/>
    <path d="M303.97,225.6l3.63.45c-.57,2.12-1.63,3.77-3.18,4.94s-3.53,1.76-5.94,1.76c-3.03,0-5.44-.93-7.22-2.8s-2.67-4.49-2.67-7.86.9-6.2,2.7-8.12,4.13-2.89,6.99-2.89,5.04.94,6.8,2.83,2.64,4.54,2.64,7.97c0,.21,0,.52-.02.94h-15.47c.13,2.28.77,4.02,1.93,5.23s2.6,1.82,4.34,1.82c1.29,0,2.39-.34,3.3-1.02s1.63-1.76,2.17-3.24ZM292.43,219.91h11.58c-.16-1.75-.6-3.05-1.33-3.93-1.12-1.35-2.57-2.03-4.36-2.03-1.61,0-2.97.54-4.07,1.62s-1.71,2.53-1.83,4.34Z"/>
  </g>
  <g>
    <line class="cls-4" x1="458.93" y1="98.62" x2="357.56" y2="98.62"/>
    <path d="M458.58,91.76c3.79,0,6.86,3.07,6.86,6.86s-3.07,6.86-6.86,6.86-6.86-3.07-6.86-6.86,3.07-6.86,6.86-6.86Z"/>
  </g>
  <g>
    <path d="M210.66,96.52l3.57-.31c.17,1.43.56,2.61,1.18,3.53s1.58,1.66,2.88,2.23,2.77.85,4.39.85c1.45,0,2.72-.21,3.83-.64s1.93-1.02,2.47-1.77.81-1.57.81-2.45-.26-1.68-.78-2.35-1.38-1.23-2.58-1.69c-.77-.3-2.47-.76-5.1-1.4s-4.47-1.23-5.53-1.79c-1.37-.72-2.39-1.6-3.06-2.67s-1.01-2.25-1.01-3.56c0-1.45.41-2.8,1.23-4.05s2.02-2.21,3.59-2.86,3.33-.98,5.25-.98c2.12,0,3.99.34,5.62,1.03s2.87,1.69,3.74,3.02,1.34,2.83,1.41,4.51l-3.63.27c-.2-1.81-.86-3.18-1.98-4.1s-2.79-1.39-4.99-1.39-3.96.42-5.01,1.26-1.57,1.85-1.57,3.04c0,1.03.37,1.88,1.11,2.54.73.66,2.63,1.34,5.71,2.04s5.19,1.31,6.34,1.83c1.67.77,2.9,1.74,3.69,2.92s1.19,2.54,1.19,4.07-.44,2.96-1.31,4.31-2.13,2.4-3.76,3.14-3.47,1.12-5.52,1.12c-2.59,0-4.76-.38-6.51-1.13s-3.12-1.89-4.12-3.41-1.52-3.23-1.57-5.15Z"/>
    <path d="M251.78,105.72v-3.05c-1.61,2.34-3.81,3.52-6.58,3.52-1.22,0-2.37-.23-3.43-.7s-1.85-1.06-2.36-1.77-.88-1.58-1.08-2.61c-.14-.69-.21-1.78-.21-3.28v-12.85h3.52v11.5c0,1.84.07,3.07.21,3.71.22.92.69,1.65,1.41,2.18s1.6.79,2.66.79,2.04-.27,2.97-.81,1.58-1.28,1.96-2.21.58-2.28.58-4.05v-11.11h3.52v20.74h-3.14Z"/>
    <path d="M260.43,105.72v-20.74h3.14v2.91c.65-1.02,1.52-1.83,2.6-2.45s2.31-.93,3.69-.93c1.54,0,2.8.32,3.78.96s1.68,1.53,2.08,2.68c1.64-2.42,3.78-3.63,6.41-3.63,2.06,0,3.64.57,4.75,1.71s1.66,2.89,1.66,5.26v14.24h-3.5v-13.07c0-1.41-.11-2.42-.34-3.04s-.64-1.12-1.24-1.49-1.3-.57-2.11-.57c-1.46,0-2.67.49-3.63,1.46s-1.45,2.52-1.45,4.66v12.05h-3.52v-13.48c0-1.56-.29-2.73-.86-3.52s-1.51-1.17-2.81-1.17c-.99,0-1.9.26-2.74.78s-1.45,1.28-1.83,2.29-.57,2.45-.57,4.34v10.76h-3.52Z"/>
    <path d="M293.75,105.72v-20.74h3.14v2.91c.65-1.02,1.52-1.83,2.6-2.45s2.31-.93,3.69-.93c1.54,0,2.8.32,3.78.96s1.68,1.53,2.08,2.68c1.64-2.42,3.78-3.63,6.41-3.63,2.06,0,3.64.57,4.75,1.71s1.66,2.89,1.66,5.26v14.24h-3.5v-13.07c0-1.41-.11-2.42-.34-3.04s-.64-1.12-1.24-1.49-1.3-.57-2.11-.57c-1.46,0-2.67.49-3.63,1.46s-1.45,2.52-1.45,4.66v12.05h-3.52v-13.48c0-1.56-.29-2.73-.86-3.52s-1.51-1.17-2.81-1.17c-.99,0-1.9.26-2.74.78s-1.45,1.28-1.83,2.29-.57,2.45-.57,4.34v10.76h-3.52Z"/>
    <path d="M327.09,81.13v-4.04h3.52v4.04h-3.52ZM327.09,105.72v-20.74h3.52v20.74h-3.52Z"/>
    <path d="M343.63,102.58l.51,3.11c-.99.21-1.88.31-2.66.31-1.28,0-2.27-.2-2.97-.61s-1.2-.93-1.48-1.59-.43-2.04-.43-4.15v-11.93h-2.58v-2.73h2.58v-5.14l3.5-2.11v7.25h3.54v2.73h-3.54v12.13c0,1,.06,1.65.19,1.93s.33.51.61.68.68.25,1.2.25c.39,0,.91-.05,1.54-.14Z"/>
  </g>
  <g>
    <g class="cls-16">
      <g>
        <path class="cls-8" d="M437.99,426.1s-42.43-8.16-65.8,62.22c0,0,39.06,8.48,57.79,18.71,0,0,55.88-19.35,73.49-18.55,0,0-21.77-60.93-65.48-62.37Z"/>
        <path class="cls-10" d="M437.99,426.1s-6.33-1.21-15.43,1.35c.27.05,10.96,2.17,12.47,3.08,0,0,7.66-3.03,14.02-2.74-3.51-.97-7.19-1.57-11.05-1.7ZM374.9,480.74c-.93,2.42-1.83,4.94-2.71,7.58,0,0,39.06,8.48,57.79,18.71,0,0,55.88-19.35,73.49-18.55,0,0-1.25-3.49-3.74-8.8-34.11,2.23-70.29,15.07-70.29,15.07-19.95-7.85-46.33-12.63-54.54-14.01Z"/>
      </g>
    </g>
    <g class="cls-12">
      <path class="cls-9" d="M429.98,507.03s55.88-19.35,73.49-18.55c0,0-21.77-60.93-65.48-62.37,0,0-12.01,6.4-8.01,80.93Z"/>
    </g>
    <g class="cls-14">
      <path class="cls-7" d="M449.04,427.8c-3.51-.97-7.19-1.57-11.05-1.7,0,0-1.34.72-2.97,4.43.08-.03,7.69-3.02,14.02-2.74ZM429.98,507.03s55.88-19.35,73.49-18.55c0,0-1.25-3.49-3.74-8.8-34.08,2.23-70.21,15.04-70.28,15.07.13,3.88.31,7.97.54,12.29Z"/>
    </g>
    <path class="cls-6" d="M383.56,478.76s21.37,2.48,30.66,7.76c0,0,14.89-34.47,1.84-40.46-13.05-6-28.02,21.43-32.5,32.71Z"/>
    <path class="cls-11" d="M383.56,478.76s21.37,2.48,30.66,7.76c0,0,3.12-7.22,5.25-15.63-19.18-4.27-35.91,7.87-35.91,7.87Z"/>
  </g>
  <g>
    <line class="cls-3" x1="490.62" y1="93.05" x2="490.22" y2="40.09"/>
    <path class="cls-1" d="M490.14,39.95l.28,19.67s7.62-8.35,15.72-2.55c8.1,5.8,19.89-.62,19.89-.62l-.28-19.17s-11.8,6.99-17.79,2.41c-8.8-6.73-17.82.25-17.82.25Z"/>
  </g>
</svg>