
<svg xmlns="http://www.w3.org/2000/svg" version="1.1" xmlns:xlink="http://www.w3.org/1999/xlink" preserveAspectRatio="none" x="0px" y="0px" width="320px" height="320px" viewBox="0 0 320 320">
<defs>
<g id="Layer2_0_FILL">
<path fill="#FFFFFF" stroke="none" d="
M 1040.8 368.2
Q 1030.55 361.6 1024.5 361.55 1018.4 361.55 1008.25 368.15
L 914.2 429
Q 903.55 435.95 900.8 441.05 898 446.15 898 458.85
L 898 570.55
Q 898 583.35 900.8 588.5 903.5 593.55 914.2 600.7
L 1008 663.5
Q 1018.1 670.25 1024.25 670.25 1030.35 670.25 1040.6 663.5
L 1135.45 600.75
Q 1146.25 593.65 1149 588.6 1151.85 583.45 1151.85 570.65
L 1151.85 459.4
Q 1151.85 446.7 1149 441.55 1146.2 436.45 1135.5 429.55
L 1040.8 368.2
M 1024.4 366.7
Q 1033.1 366.75 1039.25 370.75
L 1129.05 428.95
Q 1133.35 431.75 1134.65 435.35 1135.2 436.9 1135.2 438.6 1135.2 444.25 1129.05 448.25
L 1039.25 506.45
Q 1033.1 510.45 1024.4 510.5 1015.7 510.45 1009.55 506.45
L 919.75 448.25
Q 913.6 444.25 913.6 438.6 913.6 436.7 914.3 435 914.55 434.4 914.9 433.8 915 433.55 915.15 433.4 916.65 430.95 919.75 428.95
L 1009.55 370.75
Q 1015.7 366.75 1024.4 366.7
M 900 467.8
Q 900 463.3 901.65 460.75 902.65 459.25 904.25 458.4 908.5 456.15 914.55 460.2
L 1002.45 519.05
Q 1008.5 523.1 1012.75 531.05 1017 538.95 1017 546.15
L 1017 650.95
Q 1017 658.15 1012.75 660.35 1012 660.75 1011.2 660.95 1007.45 661.9 1002.45 658.55
L 914.55 599.7
Q 908.5 595.65 904.25 587.7 900 579.8 900 572.6
L 900 467.8
M 1147.7 459.95
Q 1149.85 462.6 1149.85 467.75
L 1149.85 572.55
Q 1149.85 579.75 1145.65 587.55 1141.5 595.45 1135.55 599.35
L 1049 656.6
Q 1045.9 658.65 1043.25 659 1043.15 659 1043.05 659.05 1042.75 659.05 1042.5 659.05 1040.55 659.1 1038.9 658.2 1034.7 655.9 1034.7 648.7
L 1034.7 543.9
Q 1034.7 536.7 1038.9 528.9 1043.1 521 1049 517.1
L 1135.55 459.85
Q 1141.5 455.95 1145.65 458.25 1146.85 458.9 1147.7 459.95 Z"/>

<path fill="#999999" stroke="none" d="
M 1149.85 467.75
Q 1149.85 462.6 1147.7 459.95 1146.85 458.9 1145.65 458.25 1141.5 455.95 1135.55 459.85
L 1049 517.1
Q 1043.1 521 1038.9 528.9 1034.7 536.7 1034.7 543.9
L 1034.7 648.7
Q 1034.7 655.9 1038.9 658.2 1040.55 659.1 1042.5 659.05 1042.75 659.05 1043.05 659.05 1043.15 659 1043.25 659 1045.9 658.65 1049 656.6
L 1135.55 599.35
Q 1141.5 595.45 1145.65 587.55 1149.85 579.75 1149.85 572.55
L 1149.85 467.75 Z"/>

<path fill="#666666" stroke="none" d="
M 901.65 460.75
Q 900 463.3 900 467.8
L 900 572.6
Q 900 579.8 904.25 587.7 908.5 595.65 914.55 599.7
L 1002.45 658.55
Q 1007.45 661.9 1011.2 660.95 1012 660.75 1012.75 660.35 1017 658.15 1017 650.95
L 1017 546.15
Q 1017 538.95 1012.75 531.05 1008.5 523.1 1002.45 519.05
L 914.55 460.2
Q 908.5 456.15 904.25 458.4 902.65 459.25 901.65 460.75 Z"/>

<path fill="#CCCCCC" stroke="none" d="
M 1039.25 370.75
Q 1033.1 366.75 1024.4 366.7 1015.7 366.75 1009.55 370.75
L 919.75 428.95
Q 916.65 430.95 915.15 433.4 915 433.55 914.9 433.8 914.55 434.4 914.3 435 913.6 436.7 913.6 438.6 913.6 444.25 919.75 448.25
L 1009.55 506.45
Q 1015.7 510.45 1024.4 510.5 1033.1 510.45 1039.25 506.45
L 1129.05 448.25
Q 1135.2 444.25 1135.2 438.6 1135.2 436.9 1134.65 435.35 1133.35 431.75 1129.05 428.95
L 1039.25 370.75 Z"/>
</g>

<g id="dot_0_Layer0_0_FILL">
<path fill="#990000" stroke="none" d="
M 94.3 -73.65
Q 60.25 -108.3 12.05 -108.3 -36.15 -108.3 -70.2 -73.65 -104.3 -39 -104.3 10 -104.3 59 -70.2 93.65 -38.8505859375 125.5517578125 4.5 128.05 54.696484375 126.5513671875 90.6 90.6 127.590234375 53.658984375 128.15 1.55 125.4326171875 -42.015234375 94.3 -73.65 Z"/>

<path fill="#330000" stroke="none" d="
M 90.6 -90.6
Q 53.1 -128.15 0 -128.15 -53.1 -128.15 -90.6 -90.6 -128.15 -53.1 -128.15 0 -128.15 53.1 -90.6 90.6 -53.1 128.15 0 128.15 2.260546875 128.15 4.5 128.05 -38.8505859375 125.5517578125 -70.2 93.65 -104.3 59 -104.3 10 -104.3 -39 -70.2 -73.65 -36.15 -108.3 12.05 -108.3 60.25 -108.3 94.3 -73.65 125.4326171875 -42.015234375 128.15 1.55 128.15 0.7916015625 128.15 0 128.15 -53.1 90.6 -90.6 Z"/>
</g>

<path id="Layer2_0_1_STROKES" stroke="#000000" stroke-width="4" stroke-linejoin="round" stroke-linecap="round" fill="none" d="
M 204.6225875854492 26.95596084594723
L 91.79333496093739 28.03389587402347
Q 79.60332717895506 28.184188842773494 74.52985992431638 31.48025283813473 69.44227600097668 34.84560317993163 64.61806869506847 45.949924468994084
L 19.748281860351653 148.58774108886712
Q 14.700153350829964 160.2598213195801 15.22022399902346 166.03054122924806 15.698593139648438 171.82884597778315 22.705142211914108 182.4210289001465
L 84.32967224121091 275.5821968078613
Q 91.39139099121087 286.25778274536134 96.56791381835922 289.00828704833987 101.6058639526367 291.730558013916 114.47461853027346 291.7907180786132
L 227.35320434570315 292.4186538696289
Q 239.50086212158214 292.4762199401855 244.63014755249026 289.08328475952146 249.7177314758302 285.7179344177247 254.54258728027355 274.4333389282227
L 299.03137435913106 169.76950759887688
Q 304.121852874756 157.88956832885737 303.6293670654296 152.16054992675782 303.1651145935058 146.2929588317872 296.10339584350584 135.61737289428714
L 234.72712936401365 42.831518554687534
Q 227.72058029174798 32.2393356323243 222.50235595703123 29.516416168212857 217.35341796875002 26.807613372802678 204.6225875854492 26.95596084594723 Z"/>
</defs>

<g transform="matrix( 0.8340301513671875, -0.55169677734375, 0.55169677734375, 0.8340301513671875, -979.4,295.15) ">
<use xlink:href="#Layer2_0_FILL"/>

<use xlink:href="#Layer2_0_1_STROKES" transform="matrix( 0.83404541015625, 0.55169677734375, -0.55169677734375, 0.83404541015625, 979.7,294.15) "/>
</g>

<g transform="matrix( 0.04620361328125, -0.106781005859375, 0.0655364990234375, 0.0990753173828125, 239.7,162.05) ">
<g transform="matrix( 1, 0, 0, 1, 0,0) ">
<use xlink:href="#dot_0_Layer0_0_FILL"/>
</g>
</g>

<g transform="matrix( -0.116363525390625, 0.000701904296875, 0.0655364990234375, 0.0990753173828125, 130.55,234.35) ">
<g transform="matrix( 1, 0, 0, 1, 0,0) ">
<use xlink:href="#dot_0_Layer0_0_FILL"/>
</g>
</g>

<g transform="matrix( 0.065460205078125, 0.098968505859375, -0.1162109375, 0.000732421875, 146.2,202.85) ">
<g transform="matrix( 1, 0, 0, 1, 0,0) ">
<use xlink:href="#dot_0_Layer0_0_FILL"/>
</g>
</g>

<g transform="matrix( 0.065460205078125, 0.098968505859375, -0.1162109375, 0.000732421875, 73.6,203.1) ">
<g transform="matrix( 1, 0, 0, 1, 0,0) ">
<use xlink:href="#dot_0_Layer0_0_FILL"/>
</g>
</g>

<g transform="matrix( 0.065460205078125, 0.098968505859375, -0.1162109375, 0.000732421875, 186.9,264.3) ">
<g transform="matrix( 1, 0, 0, 1, 0,0) ">
<use xlink:href="#dot_0_Layer0_0_FILL"/>
</g>
</g>

<g transform="matrix( 0.065460205078125, 0.098968505859375, -0.1162109375, 0.000732421875, 114.3,264.8) ">
<g transform="matrix( 1, 0, 0, 1, 0,0) ">
<use xlink:href="#dot_0_Layer0_0_FILL"/>
</g>
</g>

<g transform="matrix( -0.121124267578125, -0.0017547607421875, -0.045623779296875, 0.1121978759765625, 115.1,101.65) ">
<g transform="matrix( 1, 0, 0, 1, 0,0) ">
<use xlink:href="#dot_0_Layer0_0_FILL"/>
</g>
</g>

<g transform="matrix( -0.045623779296875, 0.1121978759765625, -0.121124267578125, -0.0017547607421875, 91.75,65.9) ">
<g transform="matrix( 1, 0, 0, 1, 0,0) ">
<use xlink:href="#dot_0_Layer0_0_FILL"/>
</g>
</g>

<g transform="matrix( -0.045623779296875, 0.1121978759765625, -0.121124267578125, -0.0017547607421875, 138.75,137) ">
<g transform="matrix( 1, 0, 0, 1, 0,0) ">
<use xlink:href="#dot_0_Layer0_0_FILL"/>
</g>
</g>
</svg>
