
<svg xmlns="http://www.w3.org/2000/svg" version="1.1" xmlns:xlink="http://www.w3.org/1999/xlink" preserveAspectRatio="none" x="0px" y="0px" width="320px" height="320px" viewBox="0 0 320 320">
<defs>
<g id="Layer9_0_FILL">
<path fill="#FFFFFF" stroke="none" d="
M 1040.5 342.55
Q 1034.4 342.55 1024.25 349.15
L 930.2 410
Q 919.55 416.95 916.8 422.05 914 427.15 914 439.85
L 914 551.55
Q 914 564.35 916.8 569.5 919.5 574.55 930.2 581.7
L 1024 644.5
Q 1034.1 651.25 1040.25 651.25 1046.35 651.25 1056.6 644.5
L 1151.45 581.75
Q 1162.25 574.65 1165 569.6 1167.85 564.45 1167.85 551.65
L 1167.85 440.4
Q 1167.85 427.7 1165 422.55 1162.2 417.45 1151.5 410.55
L 1056.8 349.2
Q 1046.55 342.6 1040.5 342.55
M 1025.55 351.75
Q 1031.7 347.75 1040.4 347.7 1049.1 347.75 1055.25 351.75
L 1145.05 409.95
Q 1149.35 412.75 1150.65 416.35 1151.2 417.9 1151.2 419.6 1151.2 425.25 1145.05 429.25
L 1055.25 487.45
Q 1049.1 491.45 1040.4 491.5 1031.7 491.45 1025.55 487.45
L 935.75 429.25
Q 929.6 425.25 929.6 419.6 929.6 417.7 930.3 416 930.55 415.4 930.9 414.8 931 414.55 931.15 414.4 932.65 411.95 935.75 409.95
L 1025.55 351.75
M 917.65 441.75
Q 918.65 440.25 920.25 439.4 924.5 437.15 930.55 441.2
L 1018.45 500.05
Q 1024.5 504.1 1028.75 512.05 1033 519.95 1033 527.15
L 1033 631.95
Q 1033 639.15 1028.75 641.35 1028 641.75 1027.2 641.95 1023.45 642.9 1018.45 639.55
L 930.55 580.7
Q 924.5 576.65 920.25 568.7 916 560.8 916 553.6
L 916 448.8
Q 916 444.3 917.65 441.75
M 1151.55 440.85
Q 1157.5 436.95 1161.65 439.25 1162.85 439.9 1163.7 440.95 1165.85 443.6 1165.85 448.75
L 1165.85 553.55
Q 1165.85 560.75 1161.65 568.55 1157.5 576.45 1151.55 580.35
L 1065 637.6
Q 1061.9 639.65 1059.25 640 1059.15 640 1059.05 640.05 1058.75 640.05 1058.5 640.05 1056.55 640.1 1054.9 639.2 1050.7 636.9 1050.7 629.7
L 1050.7 524.9
Q 1050.7 517.7 1054.9 509.9 1059.1 502 1065 498.1
L 1151.55 440.85 Z"/>

<path fill="#999999" stroke="none" d="
M 1161.65 439.25
Q 1157.5 436.95 1151.55 440.85
L 1065 498.1
Q 1059.1 502 1054.9 509.9 1050.7 517.7 1050.7 524.9
L 1050.7 629.7
Q 1050.7 636.9 1054.9 639.2 1056.55 640.1 1058.5 640.05 1058.75 640.05 1059.05 640.05 1059.15 640 1059.25 640 1061.9 639.65 1065 637.6
L 1151.55 580.35
Q 1157.5 576.45 1161.65 568.55 1165.85 560.75 1165.85 553.55
L 1165.85 448.75
Q 1165.85 443.6 1163.7 440.95 1162.85 439.9 1161.65 439.25 Z"/>

<path fill="#666666" stroke="none" d="
M 920.25 439.4
Q 918.65 440.25 917.65 441.75 916 444.3 916 448.8
L 916 553.6
Q 916 560.8 920.25 568.7 924.5 576.65 930.55 580.7
L 1018.45 639.55
Q 1023.45 642.9 1027.2 641.95 1028 641.75 1028.75 641.35 1033 639.15 1033 631.95
L 1033 527.15
Q 1033 519.95 1028.75 512.05 1024.5 504.1 1018.45 500.05
L 930.55 441.2
Q 924.5 437.15 920.25 439.4 Z"/>

<path fill="#CCCCCC" stroke="none" d="
M 1040.4 347.7
Q 1031.7 347.75 1025.55 351.75
L 935.75 409.95
Q 932.65 411.95 931.15 414.4 931 414.55 930.9 414.8 930.55 415.4 930.3 416 929.6 417.7 929.6 419.6 929.6 425.25 935.75 429.25
L 1025.55 487.45
Q 1031.7 491.45 1040.4 491.5 1049.1 491.45 1055.25 487.45
L 1145.05 429.25
Q 1151.2 425.25 1151.2 419.6 1151.2 417.9 1150.65 416.35 1149.35 412.75 1145.05 409.95
L 1055.25 351.75
Q 1049.1 347.75 1040.4 347.7 Z"/>
</g>

<g id="dot_0_Layer0_0_FILL">
<path fill="#990000" stroke="none" d="
M 94.3 -73.65
Q 60.25 -108.3 12.05 -108.3 -36.15 -108.3 -70.2 -73.65 -104.3 -39 -104.3 10 -104.3 59 -70.2 93.65 -38.8505859375 125.5517578125 4.5 128.05 54.696484375 126.5513671875 90.6 90.6 127.590234375 53.658984375 128.15 1.55 125.4326171875 -42.015234375 94.3 -73.65 Z"/>

<path fill="#330000" stroke="none" d="
M 90.6 -90.6
Q 53.1 -128.15 0 -128.15 -53.1 -128.15 -90.6 -90.6 -128.15 -53.1 -128.15 0 -128.15 53.1 -90.6 90.6 -53.1 128.15 0 128.15 2.260546875 128.15 4.5 128.05 -38.8505859375 125.5517578125 -70.2 93.65 -104.3 59 -104.3 10 -104.3 -39 -70.2 -73.65 -36.15 -108.3 12.05 -108.3 60.25 -108.3 94.3 -73.65 125.4326171875 -42.015234375 128.15 1.55 128.15 0.7916015625 128.15 0 128.15 -53.1 90.6 -90.6 Z"/>
</g>

<path id="Layer9_0_1_STROKES" stroke="#000000" stroke-width="4" stroke-linejoin="round" stroke-linecap="round" fill="none" d="
M 1151.5 410.55
L 1056.8 349.2
Q 1046.55 342.6 1040.5 342.55 1034.4 342.55 1024.25 349.15
L 930.2 410
Q 919.55 416.95 916.8 422.05 914 427.15 914 439.85
L 914 551.55
Q 914 564.35 916.8 569.5 919.5 574.55 930.2 581.7
L 1024 644.5
Q 1034.1 651.25 1040.25 651.25 1046.35 651.25 1056.6 644.5
L 1151.45 581.75
Q 1162.25 574.65 1165 569.6 1167.85 564.45 1167.85 551.65
L 1167.85 440.4
Q 1167.85 427.7 1165 422.55 1162.2 417.45 1151.5 410.55 Z"/>
</defs>

<g transform="matrix( 1, 0, 0, 1, -880.9,-336.9) ">
<use xlink:href="#Layer9_0_FILL"/>

<use xlink:href="#Layer9_0_1_STROKES"/>
</g>

<g transform="matrix( 0, 0.113128662109375, -0.09771728515625, -0.063690185546875, 62,147.85) ">
<g transform="matrix( 1, 0, 0, 1, 0,0) ">
<use xlink:href="#dot_0_Layer0_0_FILL"/>
</g>
</g>

<g transform="matrix( 0, 0.113128662109375, -0.09771728515625, -0.063690185546875, 122.75,257.55) ">
<g transform="matrix( 1, 0, 0, 1, 0,0) ">
<use xlink:href="#dot_0_Layer0_0_FILL"/>
</g>
</g>

<g transform="matrix( -0.1000213623046875, 0.0682373046875, -0.100067138671875, -0.0682373046875, 221.7,85.45) ">
<g transform="matrix( 1, 0, 0, 1, 0,0) ">
<use xlink:href="#dot_0_Layer0_0_FILL"/>
</g>
</g>

<g transform="matrix( -0.1000213623046875, 0.0682373046875, -0.100067138671875, -0.0682373046875, 159.55,43) ">
<g transform="matrix( 1, 0, 0, 1, 0,0) ">
<use xlink:href="#dot_0_Layer0_0_FILL"/>
</g>
</g>

<g transform="matrix( -0.1000213623046875, 0.0682373046875, -0.100067138671875, -0.0682373046875, 159.8,127.65) ">
<g transform="matrix( 1, 0, 0, 1, 0,0) ">
<use xlink:href="#dot_0_Layer0_0_FILL"/>
</g>
</g>

<g transform="matrix( -0.1000213623046875, 0.0682373046875, -0.100067138671875, -0.0682373046875, 97.55,85.3) ">
<g transform="matrix( 1, 0, 0, 1, 0,0) ">
<use xlink:href="#dot_0_Layer0_0_FILL"/>
</g>
</g>

<g transform="matrix( 0, 0.1129913330078125, -0.0973052978515625, 0.0636444091796875, 257.15,147.05) ">
<g transform="matrix( 1, 0, 0, 1, 0,0) ">
<use xlink:href="#dot_0_Layer0_0_FILL"/>
</g>
</g>

<g transform="matrix( 0, 0.1129913330078125, -0.0973052978515625, 0.0636444091796875, 196.7,186.7) ">
<g transform="matrix( 1, 0, 0, 1, 0,0) ">
<use xlink:href="#dot_0_Layer0_0_FILL"/>
</g>
</g>

<g transform="matrix( 0, 0.1129913330078125, -0.0973052978515625, 0.0636444091796875, 257.15,181.35) ">
<g transform="matrix( 1, 0, 0, 1, 0,0) ">
<use xlink:href="#dot_0_Layer0_0_FILL"/>
</g>
</g>

<g transform="matrix( 0, 0.1129913330078125, -0.0973052978515625, 0.0636444091796875, 196.7,220.9) ">
<g transform="matrix( 1, 0, 0, 1, 0,0) ">
<use xlink:href="#dot_0_Layer0_0_FILL"/>
</g>
</g>

<g transform="matrix( 0, 0.1129913330078125, -0.0973052978515625, 0.0636444091796875, 257.15,217.35) ">
<g transform="matrix( 1, 0, 0, 1, 0,0) ">
<use xlink:href="#dot_0_Layer0_0_FILL"/>
</g>
</g>

<g transform="matrix( 0, 0.1129913330078125, -0.0973052978515625, 0.0636444091796875, 196.7,256.85) ">
<g transform="matrix( 1, 0, 0, 1, 0,0) ">
<use xlink:href="#dot_0_Layer0_0_FILL"/>
</g>
</g>
</svg>
